<svg width="19" height="19" viewBox="0 0 19 19" fill="none" xmlns="http://www.w3.org/2000/svg">
<g clip-path="url(#clip0_1524_21839)">
<path d="M18.5653 5.46327C18.5217 4.47592 18.3621 3.79712 18.1333 3.20893C17.8974 2.58459 17.5344 2.02561 17.0588 1.56093C16.5941 1.08902 16.0314 0.722329 15.4143 0.490061C14.8227 0.261337 14.1475 0.101671 13.1601 0.058138C12.1654 0.0109186 11.8496 0 9.3267 0C6.80379 0 6.488 0.0109186 5.49696 0.0544512C4.50961 0.0979838 3.83081 0.257792 3.24277 0.486374C2.61828 0.722329 2.0593 1.08534 1.59463 1.56093C1.12272 2.02561 0.756163 2.58828 0.523752 3.20539C0.295029 3.79712 0.135362 4.47223 0.0918294 5.45958C0.04461 6.45431 0.0336914 6.7701 0.0336914 9.29301C0.0336914 11.8159 0.04461 12.1317 0.0881426 13.1227C0.131675 14.1101 0.291484 14.7889 0.520207 15.3771C0.756163 16.0014 1.12272 16.5604 1.59463 17.0251C2.0593 17.497 2.62197 17.8637 3.23908 18.096C3.83081 18.3247 4.50592 18.4843 5.49342 18.5279C6.48432 18.5715 6.80025 18.5823 9.32315 18.5823C11.8461 18.5823 12.1618 18.5715 13.1529 18.5279C14.1402 18.4843 14.819 18.3247 15.4071 18.096C16.6559 17.6131 17.6433 16.6258 18.1261 15.3771C18.3547 14.7853 18.5145 14.1101 18.558 13.1227C18.6016 12.1317 18.6125 11.8159 18.6125 9.29301C18.6125 6.7701 18.6088 6.45431 18.5653 5.46327ZM16.8919 13.0501C16.8519 13.9577 16.6994 14.4477 16.5724 14.7744C16.2602 15.584 15.6177 16.2265 14.8081 16.5387C14.4814 16.6658 13.9878 16.8182 13.0838 16.858C12.1037 16.9017 11.8098 16.9125 9.33039 16.9125C6.85101 16.9125 6.55337 16.9017 5.5768 16.858C4.66928 16.8182 4.17922 16.6658 3.85251 16.5387C3.44965 16.3898 3.08296 16.1539 2.78532 15.8453C2.47676 15.544 2.24081 15.181 2.09192 14.7781C1.96487 14.4514 1.81243 13.9577 1.77259 13.0538C1.72891 12.0737 1.71813 11.7796 1.71813 9.30024C1.71813 6.82086 1.72891 6.52323 1.77259 5.54679C1.81243 4.63927 1.96487 4.14921 2.09192 3.8225C2.24081 3.41951 2.47676 3.05295 2.78901 2.75517C3.09019 2.44662 3.4532 2.21066 3.85619 2.06191C4.1829 1.93486 4.67665 1.78243 5.58048 1.74244C6.56061 1.69891 6.8547 1.68799 9.33393 1.68799C11.817 1.68799 12.1109 1.69891 13.0875 1.74244C13.995 1.78243 14.4851 1.93486 14.8118 2.06191C15.2147 2.21066 15.5814 2.44662 15.879 2.75517C16.1876 3.0565 16.4235 3.41951 16.5724 3.8225C16.6994 4.14921 16.8519 4.64282 16.8919 5.54679C16.9354 6.52691 16.9463 6.82086 16.9463 9.30024C16.9463 11.7796 16.9354 12.07 16.8919 13.0501Z" fill="white"/>
<path d="M9.32556 4.51953C6.6902 4.51953 4.552 6.65759 4.552 9.29309C4.552 11.9286 6.6902 14.0666 9.32556 14.0666C11.9611 14.0666 14.0991 11.9286 14.0991 9.29309C14.0991 6.65759 11.9611 4.51953 9.32556 4.51953ZM9.32556 12.3896C7.61588 12.3896 6.22907 11.0029 6.22907 9.29309C6.22907 7.58326 7.61588 6.1966 9.32556 6.1966C11.0354 6.1966 12.422 7.58326 12.422 9.29309C12.422 11.0029 11.0354 12.3896 9.32556 12.3896Z" fill="white"/>
<path d="M15.4023 4.33047C15.4023 4.94588 14.9033 5.44488 14.2877 5.44488C13.6723 5.44488 13.1733 4.94588 13.1733 4.33047C13.1733 3.71492 13.6723 3.21606 14.2877 3.21606C14.9033 3.21606 15.4023 3.71492 15.4023 4.33047Z" fill="white"/>
</g>
<defs>
<clipPath id="clip0_1524_21839">
<rect width="18.5824" height="18.5824" fill="white"/>
</clipPath>
</defs>
</svg>
