<svg width="19" height="19" viewBox="0 0 19 19" fill="none" xmlns="http://www.w3.org/2000/svg">
<path fill-rule="evenodd" clip-rule="evenodd" d="M16.1108 2.75378C14.338 0.978916 11.9804 0.00104091 9.46867 0C4.29305 0 0.0808438 4.21209 0.078762 9.3891C0.0780681 11.044 0.510392 12.6595 1.33213 14.0835L0 18.9491L4.97773 17.6434C6.3493 18.3916 7.89343 18.7858 9.46486 18.7863H9.46879C14.6438 18.7863 18.8565 14.5739 18.8585 9.39662C18.8595 6.88757 17.8837 4.52853 16.1108 2.75378ZM9.46867 17.2005H9.46543C8.06507 17.2 6.69165 16.8236 5.49322 16.1127L5.20835 15.9435L2.25449 16.7184L3.04292 13.8384L2.85729 13.5431C2.07603 12.3005 1.66349 10.8643 1.66418 9.38968C1.6658 5.08668 5.16695 1.58588 9.47179 1.58588C11.5564 1.58657 13.516 2.39941 14.9894 3.8746C16.4629 5.3498 17.2739 7.31064 17.2732 9.39604C17.2713 13.6994 13.7704 17.2005 9.46867 17.2005ZM13.7496 11.3554C13.515 11.2379 12.3615 10.6705 12.1463 10.592C11.9315 10.5137 11.7749 10.4748 11.6186 10.7095C11.4621 10.9443 11.0126 11.4729 10.8756 11.6294C10.7387 11.786 10.602 11.8056 10.3673 11.6881C10.1327 11.5707 9.37673 11.3229 8.4805 10.5236C7.7831 9.90146 7.31226 9.13315 7.17532 8.89837C7.03862 8.66336 7.17416 8.54863 7.27826 8.41955C7.53224 8.10416 7.78657 7.7735 7.86475 7.61701C7.94305 7.46042 7.90384 7.32336 7.84509 7.20597C7.78657 7.08858 7.31735 5.93375 7.12189 5.46384C6.93129 5.00653 6.73802 5.06829 6.59392 5.06112C6.45721 5.0543 6.30073 5.05291 6.14424 5.05291C5.98788 5.05291 5.73366 5.11155 5.51854 5.34656C5.30354 5.58146 4.6975 6.14899 4.6975 7.30382C4.6975 8.45865 5.53821 9.57427 5.65548 9.73087C5.77276 9.88746 7.30995 12.2573 9.66344 13.2734C10.2232 13.5154 10.6602 13.6596 11.001 13.7677C11.5631 13.9463 12.0744 13.9211 12.4787 13.8607C12.9296 13.7933 13.8667 13.2931 14.0624 12.7451C14.2579 12.197 14.2579 11.7273 14.1991 11.6294C14.1406 11.5315 13.9841 11.4729 13.7496 11.3554Z" fill="white"/>
</svg>
