<svg width="17" height="18" viewBox="0 0 17 18" fill="none" xmlns="http://www.w3.org/2000/svg">
<path fill-rule="evenodd" clip-rule="evenodd" d="M12.1854 17.0266H4.80911C1.93267 17.0266 0 15.0078 0 12.0035V5.05354C0 2.0492 1.93267 0.030426 4.80911 0.030426H7.93466C8.28074 0.030426 8.56161 0.311299 8.56161 0.657374C8.56161 1.00345 8.28074 1.28432 7.93466 1.28432H4.80911C2.64907 1.28432 1.2539 2.76392 1.2539 5.05354V12.0035C1.2539 14.2931 2.64907 15.7727 4.80911 15.7727H12.1854C14.3454 15.7727 15.7414 14.2931 15.7414 12.0035V8.63634C15.7414 8.29026 16.0223 8.00939 16.3684 8.00939C16.7144 8.00939 16.9953 8.29026 16.9953 8.63634V12.0035C16.9953 15.0078 15.0618 17.0266 12.1854 17.0266Z" fill="white"/>
<path fill-rule="evenodd" clip-rule="evenodd" d="M5.7405 11.2249H8.22906C8.54672 11.2249 8.84431 11.102 9.06917 10.8772L15.3462 4.60015C15.6036 4.34268 15.7458 3.99995 15.7458 3.63548C15.7458 3.27018 15.6036 2.92661 15.3462 2.66914L14.3289 1.65182C13.7964 1.121 12.9303 1.121 12.397 1.65182L6.1501 7.89873C5.9336 8.11524 5.81071 8.4028 5.80319 8.70791L5.7405 11.2249ZM8.22924 12.4788H5.09784C4.92899 12.4788 4.76681 12.4102 4.64895 12.289C4.53108 12.1687 4.46672 12.0056 4.47089 11.836L4.54947 8.67697C4.56535 8.04835 4.81864 7.45734 5.26336 7.01179H5.26419L11.5111 0.764877C12.5326 -0.254959 14.1936 -0.254959 15.2151 0.764877L16.2324 1.78221C16.7282 2.27708 17.0007 2.93495 16.9998 3.63546C16.9998 4.33598 16.7273 4.99302 16.2324 5.48705L9.95544 11.7641C9.49484 12.2247 8.88127 12.4788 8.22924 12.4788Z" fill="white"/>
<path fill-rule="evenodd" clip-rule="evenodd" d="M14.8217 6.61753C14.6612 6.61753 14.5007 6.55651 14.3787 6.43362L10.5618 2.61676C10.3169 2.37183 10.3169 1.97477 10.5618 1.72984C10.8067 1.48491 11.203 1.48491 11.4479 1.72984L15.2648 5.54754C15.5097 5.79246 15.5097 6.1887 15.2648 6.43362C15.1427 6.55651 14.9822 6.61753 14.8217 6.61753Z" fill="white"/>
</svg>
