<svg width="212" height="85" viewBox="0 0 212 85" fill="none" xmlns="http://www.w3.org/2000/svg">
<path d="M8.75329 47.3172C4.8685 45.0807 4.86851 39.4751 8.7533 37.2386L54.8826 10.682C58.759 8.45028 63.5984 11.2483 63.5984 15.7212L63.5984 68.8345C63.5984 73.3075 58.759 76.1055 54.8825 73.8738L8.75329 47.3172Z" fill="#39C6B5"/>
<path d="M87.7921 37.7222L81.8922 27.4711H78.6841V37.7222H74.4804V12.0944H83.3303C85.2969 12.0944 86.9563 12.4386 88.3083 13.1269C89.685 13.8152 90.7052 14.7371 91.3689 15.8925C92.0573 17.0479 92.4014 18.3385 92.4014 19.7643C92.4014 21.436 91.9098 22.9601 90.9264 24.3367C89.9677 25.6888 88.4804 26.6107 86.4646 27.1023L92.807 37.7222H87.7921ZM78.6841 24.1155H83.3303C84.9036 24.1155 86.0836 23.7222 86.8702 22.9355C87.6815 22.1489 88.0871 21.0918 88.0871 19.7643C88.0871 18.4368 87.6938 17.4043 86.9071 16.6669C86.1205 15.9048 84.9282 15.5237 83.3303 15.5237H78.6841V24.1155ZM96.1934 27.4711C96.1934 25.4307 96.6113 23.6238 97.4472 22.0505C98.3076 20.4772 99.463 19.2604 100.913 18.4C102.388 17.515 104.011 17.0725 105.781 17.0725C107.379 17.0725 108.768 17.3921 109.948 18.0312C111.152 18.6458 112.111 19.4201 112.824 20.3543V17.4043H117.064V37.7222H112.824V34.6985C112.111 35.6572 111.14 36.4561 109.911 37.0953C108.682 37.7345 107.28 38.054 105.707 38.054C103.962 38.054 102.364 37.6115 100.913 36.7266C99.463 35.817 98.3076 34.5633 97.4472 32.9654C96.6113 31.3429 96.1934 29.5115 96.1934 27.4711ZM112.824 27.5448C112.824 26.1436 112.529 24.9267 111.939 23.8942C111.373 22.8618 110.624 22.0751 109.689 21.5343C108.755 20.9935 107.747 20.723 106.666 20.723C105.584 20.723 104.576 20.9935 103.642 21.5343C102.708 22.0505 101.946 22.8249 101.356 23.8574C100.79 24.8653 100.508 26.0698 100.508 27.4711C100.508 28.8723 100.79 30.1014 101.356 31.1585C101.946 32.2156 102.708 33.0268 103.642 33.5922C104.601 34.1331 105.609 34.4035 106.666 34.4035C107.747 34.4035 108.755 34.1331 109.689 33.5922C110.624 33.0514 111.373 32.2647 111.939 31.2323C112.529 30.1752 112.824 28.946 112.824 27.5448ZM149.688 17.4043L143.383 37.7222H138.958L134.865 22.7143L130.772 37.7222H126.347L120.005 17.4043H124.282L128.523 33.7397L132.837 17.4043H137.225L141.355 33.666L145.559 17.4043H149.688ZM82.9247 69.9803C81.2039 69.9803 79.6551 69.6853 78.2785 69.0953C76.9019 68.4807 75.8202 67.6203 75.0335 66.5141C74.2469 65.4079 73.8536 64.1173 73.8536 62.6423H78.3522C78.4506 63.7485 78.8808 64.6581 79.6429 65.371C80.4295 66.0839 81.5234 66.4403 82.9247 66.4403C84.3751 66.4403 85.5059 66.0962 86.3171 65.4079C87.1284 64.695 87.534 63.7854 87.534 62.6791C87.534 61.8187 87.2759 61.1181 86.7596 60.5773C86.268 60.0365 85.6411 59.6186 84.879 59.3236C84.1415 59.0286 83.109 58.709 81.7816 58.3648C80.1099 57.9223 78.7456 57.4799 77.6885 57.0374C76.656 56.5703 75.771 55.8574 75.0335 54.8986C74.2961 53.9399 73.9273 52.6616 73.9273 51.0637C73.9273 49.5887 74.2961 48.2981 75.0335 47.1919C75.771 46.0856 76.8035 45.2375 78.131 44.6475C79.4585 44.0575 80.9949 43.7626 82.7403 43.7626C85.2232 43.7626 87.2513 44.3894 88.8246 45.6431C90.4225 46.8723 91.3075 48.5685 91.4795 50.7318H86.8334C86.7596 49.7977 86.3171 48.9987 85.5059 48.335C84.6947 47.6712 83.6253 47.3394 82.2978 47.3394C81.0932 47.3394 80.1099 47.6467 79.3479 48.2612C78.5858 48.8758 78.2047 49.7608 78.2047 50.9162C78.2047 51.7029 78.4383 52.3543 78.9054 52.8705C79.397 53.3622 80.0116 53.7555 80.7491 54.0505C81.4866 54.3455 82.4945 54.6651 83.7728 55.0093C85.469 55.4763 86.8457 55.9434 87.9027 56.4105C88.9844 56.8776 89.8939 57.6028 90.6314 58.5861C91.3935 59.5448 91.7745 60.8354 91.7745 62.4579C91.7745 63.7608 91.4181 64.9899 90.7052 66.1453C90.0169 67.3007 88.9967 68.2349 87.6446 68.9478C86.3171 69.6361 84.7438 69.9803 82.9247 69.9803ZM95.1491 59.5448C95.1491 57.4553 95.567 55.6238 96.4029 54.0505C97.2633 52.4526 98.4433 51.2235 99.9428 50.3631C101.442 49.5027 103.163 49.0725 105.105 49.0725C107.564 49.0725 109.592 49.6625 111.19 50.8424C112.812 51.9978 113.906 53.6572 114.471 55.8205H109.936C109.567 54.8126 108.977 54.0259 108.166 53.4605C107.355 52.8951 106.334 52.6124 105.105 52.6124C103.384 52.6124 102.008 53.227 100.975 54.4561C99.9674 55.6607 99.4634 57.3569 99.4634 59.5448C99.4634 61.7327 99.9674 63.4412 100.975 64.6704C102.008 65.8995 103.384 66.5141 105.105 66.5141C107.539 66.5141 109.149 65.4447 109.936 63.306H114.471C113.881 65.371 112.775 67.018 111.153 68.2472C109.53 69.4518 107.514 70.054 105.105 70.054C103.163 70.054 101.442 69.6238 99.9428 68.7634C98.4433 67.8784 97.2633 66.6493 96.4029 65.076C95.567 63.4781 95.1491 61.6344 95.1491 59.5448ZM128.985 49.0725C130.534 49.0725 131.911 49.4043 133.115 50.0681C134.345 50.7318 135.303 51.7151 135.992 53.018C136.705 54.3209 137.061 55.8942 137.061 57.738V69.7222H132.894V58.3648C132.894 56.5457 132.439 55.1568 131.53 54.198C130.62 53.2147 129.379 52.723 127.805 52.723C126.232 52.723 124.978 53.2147 124.044 54.198C123.135 55.1568 122.68 56.5457 122.68 58.3648V69.7222H118.476V42.4351H122.68V51.7643C123.393 50.9039 124.29 50.2402 125.372 49.7731C126.478 49.306 127.683 49.0725 128.985 49.0725ZM151.052 70.054C149.134 70.054 147.401 69.6238 145.852 68.7634C144.304 67.8784 143.087 66.6493 142.202 65.076C141.317 63.4781 140.874 61.6344 140.874 59.5448C140.874 57.4798 141.329 55.6484 142.239 54.0505C143.148 52.4526 144.39 51.2235 145.963 50.3631C147.536 49.5027 149.294 49.0725 151.236 49.0725C153.178 49.0725 154.936 49.5027 156.509 50.3631C158.082 51.2235 159.324 52.4526 160.233 54.0505C161.143 55.6484 161.598 57.4798 161.598 59.5448C161.598 61.6098 161.131 63.4412 160.197 65.0391C159.262 66.637 157.984 67.8784 156.362 68.7634C154.764 69.6238 152.994 70.054 151.052 70.054ZM151.052 66.4035C152.133 66.4035 153.141 66.1453 154.075 65.6291C155.034 65.1129 155.808 64.3385 156.398 63.306C156.988 62.2735 157.283 61.0198 157.283 59.5448C157.283 58.0698 157.001 56.8284 156.435 55.8205C155.87 54.788 155.12 54.0137 154.186 53.4974C153.252 52.9812 152.244 52.723 151.162 52.723C150.081 52.723 149.073 52.9812 148.139 53.4974C147.229 54.0137 146.504 54.788 145.963 55.8205C145.422 56.8284 145.152 58.0698 145.152 59.5448C145.152 61.7327 145.705 63.4289 146.811 64.6335C147.942 65.8135 149.355 66.4035 151.052 66.4035ZM169.773 42.4351V69.7222H165.569V42.4351H169.773ZM173.706 59.4711C173.706 57.4307 174.124 55.6238 174.96 54.0505C175.82 52.4772 176.976 51.2604 178.426 50.4C179.901 49.515 181.523 49.0725 183.293 49.0725C184.891 49.0725 186.28 49.3921 187.46 50.0312C188.665 50.6458 189.624 51.4201 190.336 52.3543V49.4043H194.577V69.7222H190.336V66.6985C189.624 67.6572 188.653 68.4561 187.423 69.0953C186.194 69.7345 184.793 70.054 183.22 70.054C181.474 70.054 179.876 69.6115 178.426 68.7266C176.976 67.817 175.82 66.5633 174.96 64.9654C174.124 63.3429 173.706 61.5115 173.706 59.4711ZM190.336 59.5448C190.336 58.1436 190.041 56.9267 189.452 55.8942C188.886 54.8618 188.136 54.0751 187.202 53.5343C186.268 52.9935 185.26 52.723 184.178 52.723C183.097 52.723 182.089 52.9935 181.155 53.5343C180.221 54.0505 179.459 54.8249 178.869 55.8574C178.303 56.8653 178.02 58.0698 178.02 59.4711C178.02 60.8723 178.303 62.1014 178.869 63.1585C179.459 64.2156 180.221 65.0268 181.155 65.5922C182.113 66.1331 183.121 66.4035 184.178 66.4035C185.26 66.4035 186.268 66.1331 187.202 65.5922C188.136 65.0514 188.886 64.2647 189.452 63.2323C190.041 62.1752 190.336 60.946 190.336 59.5448ZM204.118 52.3543C204.732 51.3218 205.544 50.5229 206.551 49.9575C207.584 49.3675 208.801 49.0725 210.202 49.0725V53.4237H209.133C207.486 53.4237 206.232 53.8416 205.371 54.6774C204.536 55.5132 204.118 56.9636 204.118 59.0286V69.7222H199.914V49.4043H204.118V52.3543Z" fill="#232323"/>
</svg>
