<svg width="321" height="129" viewBox="0 0 321 129" fill="none" xmlns="http://www.w3.org/2000/svg">
<path d="M13.2845 71.8111C7.38874 68.4169 7.38874 59.9095 13.2845 56.5153L83.2929 16.2114C89.1761 12.8244 96.5206 17.0708 96.5206 23.8593L96.5206 104.467C96.5206 111.256 89.1761 115.502 83.293 112.115L13.2845 71.8111Z" fill="#39C6B5"/>
<path d="M133.238 57.2371L124.284 41.6794H119.415V57.2371H113.035V18.3429H126.466C129.451 18.3429 131.969 18.8652 134.021 19.9099C136.11 20.9545 137.659 22.3536 138.666 24.1071C139.711 25.8606 140.233 27.8193 140.233 29.9832C140.233 32.5201 139.487 34.8333 137.995 36.9226C136.539 38.9745 134.282 40.3736 131.223 41.1198L140.849 57.2371H133.238ZM119.415 36.5868H126.466C128.854 36.5868 130.645 35.9898 131.839 34.796C133.07 33.6021 133.685 31.9978 133.685 29.9832C133.685 27.9685 133.088 26.4015 131.895 25.2823C130.701 24.1257 128.891 23.5474 126.466 23.5474H119.415V36.5868ZM145.988 41.6794C145.988 38.5828 146.622 35.8406 147.891 33.4529C149.197 31.0651 150.95 29.2183 153.151 27.9125C155.39 26.5694 157.852 25.8979 160.538 25.8979C162.963 25.8979 165.071 26.3829 166.862 27.3529C168.69 28.2856 170.145 29.4608 171.227 30.8786V26.4015H177.663V57.2371H171.227V52.6481C170.145 54.1031 168.672 55.3157 166.806 56.2857C164.941 57.2557 162.814 57.7407 160.426 57.7407C157.778 57.7407 155.352 57.0692 153.151 55.7261C150.95 54.3456 149.197 52.4429 147.891 50.0179C146.622 47.5555 145.988 44.776 145.988 41.6794ZM171.227 41.7913C171.227 39.6647 170.78 37.818 169.884 36.251C169.026 34.684 167.888 33.4902 166.47 32.6694C165.053 31.8486 163.523 31.4382 161.881 31.4382C160.24 31.4382 158.71 31.8486 157.293 32.6694C155.875 33.4529 154.718 34.6281 153.823 36.195C152.965 37.7247 152.536 39.5528 152.536 41.6794C152.536 43.806 152.965 45.6714 153.823 47.2757C154.718 48.8799 155.875 50.1111 157.293 50.9692C158.748 51.79 160.277 52.2004 161.881 52.2004C163.523 52.2004 165.053 51.79 166.47 50.9692C167.888 50.1484 169.026 48.9546 169.884 47.3876C170.78 45.7833 171.227 43.9179 171.227 41.7913ZM227.175 26.4015L217.606 57.2371H210.89L204.678 34.4602L198.466 57.2371H191.751L182.125 26.4015H188.617L195.053 51.1931L201.6 26.4015H208.26L214.528 51.0811L220.907 26.4015H227.175ZM125.851 105.629C123.239 105.629 120.889 105.181 118.799 104.286C116.71 103.353 115.068 102.047 113.875 100.368C112.681 98.6894 112.084 96.7307 112.084 94.4922H118.911C119.06 96.1711 119.713 97.5515 120.87 98.6334C122.064 99.7154 123.724 100.256 125.851 100.256C128.052 100.256 129.768 99.734 130.999 98.6894C132.23 97.6075 132.846 96.227 132.846 94.5482C132.846 93.2424 132.454 92.1791 131.671 91.3583C130.925 90.5375 129.973 89.9032 128.817 89.4555C127.697 89.0078 126.13 88.5228 124.116 88.0005C121.579 87.329 119.508 86.6574 117.904 85.9858C116.337 85.277 114.994 84.195 113.875 82.74C112.755 81.285 112.196 79.3449 112.196 76.9199C112.196 74.6814 112.755 72.7227 113.875 71.0438C114.994 69.3649 116.561 68.0777 118.575 67.1823C120.59 66.2869 122.922 65.8392 125.571 65.8392C129.339 65.8392 132.417 66.7906 134.805 68.6933C137.23 70.5588 138.573 73.1331 138.834 76.4162H131.783C131.671 74.9985 130.999 73.786 129.768 72.7786C128.537 71.7713 126.914 71.2676 124.899 71.2676C123.071 71.2676 121.579 71.734 120.422 72.6667C119.266 73.5994 118.687 74.9425 118.687 76.696C118.687 77.8899 119.042 78.8786 119.751 79.662C120.497 80.4082 121.43 81.0052 122.549 81.4529C123.668 81.9006 125.198 82.3856 127.138 82.9079C129.712 83.6168 131.801 84.3256 133.406 85.0345C135.047 85.7433 136.428 86.8439 137.547 88.3363C138.703 89.7913 139.282 91.75 139.282 94.2124C139.282 96.1897 138.741 98.0552 137.659 99.8087C136.614 101.562 135.066 102.98 133.014 104.062C130.999 105.106 128.611 105.629 125.851 105.629ZM144.403 89.7913C144.403 86.6201 145.037 83.8406 146.306 81.4529C147.612 79.0278 149.402 77.1624 151.678 75.8566C153.954 74.5508 156.566 73.8979 159.513 73.8979C163.244 73.8979 166.322 74.7933 168.747 76.5841C171.209 78.3376 172.87 80.8559 173.728 84.1391H166.844C166.285 82.6094 165.389 81.4156 164.158 80.5575C162.927 79.6994 161.379 79.2703 159.513 79.2703C156.902 79.2703 154.812 80.203 153.245 82.0684C151.716 83.8966 150.951 86.4709 150.951 89.7913C150.951 93.1118 151.716 95.7047 153.245 97.5702C154.812 99.4356 156.902 100.368 159.513 100.368C163.207 100.368 165.65 98.7454 166.844 95.4995H173.728C172.832 98.6334 171.153 101.133 168.691 102.999C166.229 104.827 163.169 105.741 159.513 105.741C156.566 105.741 153.954 105.088 151.678 103.782C149.402 102.439 147.612 100.573 146.306 98.1857C145.037 95.7607 144.403 92.9625 144.403 89.7913ZM195.755 73.8979C198.106 73.8979 200.195 74.4015 202.023 75.4089C203.888 76.4162 205.343 77.9085 206.388 79.8859C207.47 81.8633 208.011 84.251 208.011 87.0491V105.237H201.687V88.0005C201.687 85.2397 200.997 83.1317 199.617 81.6767C198.236 80.1844 196.352 79.4382 193.964 79.4382C191.577 79.4382 189.674 80.1844 188.256 81.6767C186.876 83.1317 186.186 85.2397 186.186 88.0005V105.237H179.806V63.8246H186.186V77.9832C187.267 76.6774 188.629 75.67 190.271 74.9612C191.95 74.2523 193.778 73.8979 195.755 73.8979ZM229.244 105.741C226.334 105.741 223.704 105.088 221.353 103.782C219.003 102.439 217.156 100.573 215.813 98.1857C214.47 95.7607 213.798 92.9625 213.798 89.7913C213.798 86.6574 214.489 83.8779 215.869 81.4529C217.249 79.0278 219.133 77.1624 221.521 75.8566C223.909 74.5508 226.577 73.8979 229.524 73.8979C232.471 73.8979 235.139 74.5508 237.527 75.8566C239.914 77.1624 241.798 79.0278 243.179 81.4529C244.559 83.8779 245.249 86.6574 245.249 89.7913C245.249 92.9252 244.541 95.7047 243.123 98.1298C241.705 100.555 239.765 102.439 237.303 103.782C234.878 105.088 232.191 105.741 229.244 105.741ZM229.244 100.2C230.886 100.2 232.415 99.8087 233.833 99.0252C235.288 98.2417 236.463 97.0665 237.359 95.4995C238.254 93.9326 238.702 92.0298 238.702 89.7913C238.702 87.5528 238.273 85.6687 237.415 84.1391C236.557 82.5721 235.419 81.3969 234.001 80.6134C232.583 79.8299 231.054 79.4382 229.412 79.4382C227.77 79.4382 226.241 79.8299 224.823 80.6134C223.443 81.3969 222.342 82.5721 221.521 84.1391C220.7 85.6687 220.29 87.5528 220.29 89.7913C220.29 93.1118 221.129 95.6861 222.808 97.5142C224.525 99.305 226.67 100.2 229.244 100.2ZM257.656 63.8246V105.237H251.276V63.8246H257.656ZM263.626 89.6794C263.626 86.5828 264.26 83.8406 265.529 81.4529C266.834 79.0651 268.588 77.2183 270.789 75.9125C273.028 74.5694 275.49 73.8979 278.176 73.8979C280.601 73.8979 282.709 74.3829 284.5 75.3529C286.328 76.2856 287.783 77.4608 288.865 78.8786V74.4015H295.301V105.237H288.865V100.648C287.783 102.103 286.309 103.316 284.444 104.286C282.579 105.256 280.452 105.741 278.064 105.741C275.415 105.741 272.99 105.069 270.789 103.726C268.588 102.346 266.834 100.443 265.529 98.0179C264.26 95.5555 263.626 92.776 263.626 89.6794ZM288.865 89.7913C288.865 87.6647 288.417 85.818 287.522 84.251C286.664 82.684 285.526 81.4902 284.108 80.6694C282.69 79.8486 281.161 79.4382 279.519 79.4382C277.878 79.4382 276.348 79.8486 274.93 80.6694C273.513 81.4529 272.356 82.6281 271.461 84.195C270.603 85.7247 270.173 87.5528 270.173 89.6794C270.173 91.806 270.603 93.6714 271.461 95.2757C272.356 96.8799 273.513 98.1111 274.93 98.9692C276.385 99.79 277.915 100.2 279.519 100.2C281.161 100.2 282.69 99.79 284.108 98.9692C285.526 98.1484 286.664 96.9546 287.522 95.3876C288.417 93.7833 288.865 91.9179 288.865 89.7913ZM309.78 78.8786C310.713 77.3116 311.944 76.0991 313.474 75.241C315.041 74.3456 316.888 73.8979 319.014 73.8979V80.5015H317.391C314.892 80.5015 312.989 81.1357 311.683 82.4042C310.415 83.6727 309.78 85.8739 309.78 89.0078V105.237H303.401V74.4015H309.78V78.8786Z" fill="white"/>
</svg>
