<svg width="980" height="980" viewBox="0 0 980 980" fill="none" xmlns="http://www.w3.org/2000/svg">
<path opacity="0.2" d="M368.19 772.335C490.227 772.335 589.157 764.823 589.157 755.557C589.157 746.291 490.227 738.78 368.19 738.78C246.153 738.78 147.223 746.291 147.223 755.557C147.223 764.823 246.153 772.335 368.19 772.335Z" fill="#293033"/>
<path opacity="0.2" d="M705.602 757.119C744.023 757.119 775.169 754.553 775.169 751.389C775.169 748.224 744.023 745.659 705.602 745.659C667.181 745.659 636.035 748.224 636.035 751.389C636.035 754.553 667.181 757.119 705.602 757.119Z" fill="#293033"/>
<g filter="url(#filter0_b_1487_37060)">
<path d="M168.926 744C168.926 744 1.2051 546.855 80.1068 473.124C159.008 399.393 220.853 440.169 235.879 360.652C249.737 287.315 337.823 198.391 459 227.754C582.246 257.619 558.67 389.147 619.234 382.903C679.798 376.659 783.391 329.951 802.118 418.392C820.849 506.832 733.086 582.684 788.969 576.418C827.375 572.113 887.809 573.893 843.327 658.182C798.845 742.471 749.845 743.997 749.845 743.997H168.926V744Z" fill="white" fill-opacity="0.31"/>
</g>
<path fill-rule="evenodd" clip-rule="evenodd" d="M569.965 441.852L554.03 440.807L537.105 688.93L553.053 689.972L569.965 441.852Z" fill="#244082"/>
<path fill-rule="evenodd" clip-rule="evenodd" d="M561.991 441.33L554.03 440.807L537.105 688.93L545.076 689.453L561.991 441.33Z" fill="#223164"/>
<path fill-rule="evenodd" clip-rule="evenodd" d="M551.737 454.671L550.14 454.566L549.846 459.025L551.162 459.11V459.114L557.091 459.502L568.707 460.26L565.003 514.598L566.437 514.696C567.058 514.229 567.038 514.526 568.462 503.926C569.906 493.309 574.349 459.63 574.241 455.004C573.611 429.263 571.318 409.313 571.014 380.044C571.05 378.1 561.743 377.215 561.433 379.394L551.737 454.671Z" fill="#244082"/>
<path d="M498.059 616.417L496.243 636.193C495.586 643.363 500.865 649.704 508.035 650.364L521.321 651.582C528.491 652.239 534.832 646.963 535.492 639.793L537.308 620.017L498.059 616.417Z" fill="#D63332"/>
<path d="M539.354 608.103L498.217 604.33L509.232 484.205L533.954 440.807L550.369 487.978L539.354 608.103Z" fill="#FBC7AF"/>
<path d="M543.251 490.202C538.109 489.732 536.643 486.86 536.643 486.86C536.643 486.86 534.362 488.954 529.577 488.517C524.791 488.079 522.932 485.603 522.932 485.603C522.932 485.603 521.384 488.34 515.814 487.831C510.241 487.318 509.219 484.345 509.219 484.345L498.217 604.333L511.93 605.591L525.644 606.848L539.357 608.106L550.359 488.118C550.356 488.118 548.393 490.673 543.251 490.202Z" fill="#067BC2"/>
<path d="M533.954 440.807L527.812 451.587C529.714 452.433 531.804 452.985 533.604 452.979C534.986 452.975 536.453 452.646 537.871 452.064L533.954 440.807Z" fill="#28364C"/>
<path d="M498.186 604.325L496.562 622.037L537.699 625.809L539.323 608.097L498.186 604.325Z" fill="white"/>
<path d="M497.686 610.069L497.109 616.354L538.246 620.126L538.822 613.841L497.686 610.069Z" fill="#243F80"/>
<path d="M603.985 497.575L605.55 477.776C606.115 470.599 600.754 464.324 593.58 463.756L580.279 462.707C573.102 462.142 566.826 467.499 566.258 474.676L564.693 494.475L603.985 497.575Z" fill="#D63332"/>
<path d="M562.802 506.412L603.985 509.662L594.492 629.918L570.322 673.626L553.312 626.667L562.802 506.412Z" fill="#FBC7AF"/>
<path d="M560.401 624.351C565.546 624.756 567.048 627.611 567.048 627.611C567.048 627.611 569.302 625.488 574.094 625.864C578.883 626.243 580.778 628.693 580.778 628.693C580.778 628.693 582.29 625.936 587.867 626.377C593.446 626.818 594.505 629.781 594.505 629.781L603.984 509.665L590.255 508.581L576.528 507.496L562.798 506.412L553.318 626.527C553.322 626.527 555.252 623.946 560.401 624.351Z" fill="#D63332"/>
<path d="M570.322 673.626L576.326 662.767C574.411 661.944 572.317 661.422 570.514 661.448C569.132 661.471 567.669 661.817 566.258 662.415L570.322 673.626Z" fill="#28364C"/>
<path d="M564.208 488.685L562.809 506.417L603.991 509.668L605.391 491.936L564.208 488.685Z" fill="white"/>
<path fill-rule="evenodd" clip-rule="evenodd" d="M494.457 432.712L478.559 434.16L500.749 678.964L516.664 677.51L494.457 432.712Z" fill="#244082"/>
<path fill-rule="evenodd" clip-rule="evenodd" d="M486.503 433.438L478.559 434.16L500.749 678.964L508.703 678.238L486.503 433.438Z" fill="#223164"/>
<path fill-rule="evenodd" clip-rule="evenodd" d="M478.468 448.049L476.873 448.193L477.282 452.593L478.595 452.472V452.476L484.511 451.937L496.101 450.878L500.962 504.491L502.393 504.367C502.932 503.815 502.961 504.109 502.706 493.541C502.464 482.957 501.576 449.395 500.743 444.894C496.085 419.868 490.691 400.751 485.801 372.23C485.533 370.329 476.204 370.907 476.236 373.083L478.468 448.049Z" fill="#244082"/>
<path fill-rule="evenodd" clip-rule="evenodd" d="M543.847 745.659H596.62C610.288 745.659 621.47 734.477 621.47 720.813L633.017 534.054H543.851H454.684L466.231 720.813C466.231 734.477 477.413 745.659 491.081 745.659H543.847Z" fill="#50C0E7"/>
<path fill-rule="evenodd" clip-rule="evenodd" d="M543.847 745.659H566.096C579.764 745.659 590.945 734.477 590.945 720.813L602.493 534.054H543.847H454.68L466.227 720.813C466.227 734.477 477.409 745.659 491.077 745.659H543.847Z" fill="#BEE3F4"/>
<path fill-rule="evenodd" clip-rule="evenodd" d="M635.889 525.019H451.806C449.323 525.019 447.291 527.051 447.291 529.533C447.291 532.016 449.323 534.048 451.806 534.048H635.889C638.371 534.048 640.403 532.016 640.403 529.533C640.403 527.051 638.371 525.019 635.889 525.019Z" fill="#FFEDE1"/>
<path d="M838.952 742.961H154.863V745.656H838.952V742.961Z" fill="#293033"/>
<path d="M123.049 393.235L143.495 369.95L175.583 361.999L166.211 375.343L171.324 384.431L149.316 400.049L140.94 389.543L123.049 393.235Z" fill="#455E65"/>
<path d="M164.157 398.077C170.428 394.006 173.82 388.1 171.733 384.884C169.646 381.669 162.87 382.361 156.599 386.431C150.328 390.501 146.936 396.408 149.023 399.623C151.11 402.839 157.886 402.147 164.157 398.077Z" fill="#455E65"/>
<path opacity="0.3" d="M164.157 398.077C170.428 394.006 173.82 388.1 171.733 384.884C169.646 381.669 162.87 382.361 156.599 386.431C150.328 390.501 146.936 396.408 149.023 399.623C151.11 402.839 157.886 402.147 164.157 398.077Z" fill="#293033"/>
<path d="M178.654 367.918C178.582 367.882 176.932 367.01 176.769 365.661C176.619 364.413 176.184 363.746 174.104 363.335L174.139 363.162C176.315 363.593 176.792 364.334 176.949 365.641C177.099 366.899 178.723 367.755 178.739 367.764L178.654 367.918Z" fill="#FFC72E"/>
<path fill-rule="evenodd" clip-rule="evenodd" d="M185.06 374.562L185.269 374.353L185.766 373.853C182.623 371.325 180.366 368.251 178.912 367.591L178.436 368.071C179.105 369.518 182.509 371.442 185.06 374.562Z" fill="#FDBD30"/>
<path d="M178.724 367.387L178.248 367.867L178.438 368.056L178.914 367.575L178.724 367.387Z" fill="#AB8242"/>
<path d="M175.493 361.716L143.406 369.667L143.543 370.218L175.63 362.268L175.493 361.716Z" fill="#293033"/>
<path d="M166.471 375.205L165.979 375.489L171.499 385.048L171.991 384.764L166.471 375.205Z" fill="#293033"/>
<path d="M481.528 596.16C481.09 594.961 480.685 593.707 480.319 592.407C479.979 591.195 479.666 589.944 479.391 588.653C479.133 587.435 478.908 586.18 478.715 584.9C478.529 583.675 478.375 582.42 478.255 581.146C478.137 579.915 478.049 578.664 477.993 577.393C477.944 576.282 477.915 575.162 477.915 574.028C477.915 573.898 477.918 573.77 477.921 573.64C477.928 572.372 477.964 571.121 478.032 569.886C478.101 568.616 478.206 567.361 478.336 566.133C478.473 564.856 478.643 563.604 478.843 562.379C479.052 561.096 479.297 559.845 479.571 558.626C479.862 557.336 480.185 556.081 480.545 554.873C480.933 553.566 481.361 552.315 481.822 551.119C482.331 549.796 482.883 548.539 483.478 547.366C484.089 546.157 484.739 545.033 485.425 544.001H343.946C343.387 545.056 342.858 546.183 342.358 547.366C341.858 548.558 341.388 549.809 340.957 551.119C340.558 552.325 340.189 553.576 339.856 554.873C339.542 556.088 339.261 557.342 339.006 558.626C338.765 559.848 338.552 561.102 338.369 562.379C338.193 563.608 338.043 564.859 337.922 566.133C337.804 567.364 337.713 568.616 337.651 569.886C337.592 571.121 337.559 572.375 337.556 573.64C337.556 573.77 337.553 573.898 337.553 574.028C337.553 575.162 337.582 576.282 337.625 577.393C337.674 578.664 337.752 579.915 337.857 581.146C337.964 582.42 338.102 583.672 338.265 584.9C338.435 586.177 338.634 587.432 338.863 588.653C339.101 589.937 339.369 591.191 339.666 592.407C339.983 593.7 340.329 594.955 340.708 596.16C341.117 597.467 341.561 598.721 342.038 599.913C342.626 601.387 343.263 602.772 343.946 604.056H485.422C484.589 602.808 483.814 601.416 483.099 599.913C482.537 598.734 482.011 597.48 481.528 596.16Z" fill="white"/>
<path d="M465.249 562.971H337.146V565.666H465.249V562.971Z" fill="#243F80"/>
<path d="M465.249 582.381H236.232V585.076H465.249V582.381Z" fill="#243F80"/>
<path d="M182.717 607.812H486.785C488.859 607.812 490.538 606.13 490.538 604.059C490.538 601.985 488.856 600.306 486.785 600.306H359.587C351.832 600.306 346.426 586.455 346.426 574.025C346.426 561.595 351.832 547.745 359.587 547.745H486.785C488.859 547.745 490.538 546.063 490.538 543.991C490.538 541.92 488.856 540.238 486.785 540.238H182.717C171.127 540.238 162.049 555.078 162.049 574.025C162.049 592.972 171.127 607.812 182.717 607.812Z" fill="#EF9449"/>
<path d="M338.495 574.022C338.495 555.075 347.573 540.235 359.163 540.235H319.744C308.154 540.235 299.076 555.075 299.076 574.022C299.076 592.969 308.154 607.809 319.744 607.809H359.163C347.573 607.812 338.495 592.969 338.495 574.022Z" fill="#FFC718"/>
<path d="M288.068 574.022C288.068 555.075 297.146 540.235 308.736 540.235H301.252C289.662 540.235 280.584 555.075 280.584 574.022C280.584 592.969 289.662 607.809 301.252 607.809H308.739C297.149 607.812 288.068 592.969 288.068 574.022Z" fill="#FFC718"/>
<path d="M449.173 713.316C449.124 712.045 449.045 710.794 448.941 709.562C448.833 708.288 448.696 707.037 448.533 705.809C448.363 704.532 448.163 703.277 447.935 702.056C447.696 700.772 447.428 699.517 447.131 698.302H171.656C171.999 699.514 172.31 700.765 172.584 702.056C172.842 703.274 173.068 704.529 173.26 705.809C173.447 707.034 173.6 708.288 173.721 709.562C173.839 710.794 173.927 712.045 173.982 713.316C174.031 714.427 174.061 715.547 174.061 716.681C174.061 716.811 174.057 716.939 174.054 717.069C174.048 718.337 174.012 719.588 173.943 720.823C173.874 722.093 173.77 723.348 173.639 724.576C173.502 725.853 173.332 727.104 173.133 728.329C172.924 729.613 172.679 730.864 172.404 732.083C172.114 733.373 171.79 734.628 171.428 735.836H446.935C447.249 734.621 447.53 733.367 447.784 732.083C448.026 730.861 448.239 729.607 448.421 728.329C448.598 727.101 448.748 725.85 448.869 724.576C448.987 723.345 449.078 722.093 449.14 720.823C449.199 719.588 449.232 718.334 449.235 717.069C449.235 716.939 449.238 716.811 449.238 716.681C449.245 715.547 449.215 714.427 449.173 713.316Z" fill="#FFEFC8"/>
<path d="M452.067 706.018H323.965V708.713H452.067V706.018Z" fill="#243F80"/>
<path d="M452.063 725.429H223.047V728.124H452.063V725.429Z" fill="#243F80"/>
<path d="M439.839 742.961H163.923C161.849 742.961 160.17 741.279 160.17 739.207C160.17 737.133 161.852 735.454 163.923 735.454H439.839C442.423 735.454 447.365 728.143 447.365 716.684C447.365 705.224 442.423 697.914 439.839 697.914H163.923C161.849 697.914 160.17 696.231 160.17 694.16C160.17 692.089 161.852 690.407 163.923 690.407H439.839C449.126 690.407 454.872 704.048 454.872 716.687C454.872 729.326 449.126 742.961 439.839 742.961Z" fill="#00B0B2"/>
<path d="M436.103 652.864H154.539V690.405H436.103V652.864Z" fill="#3C66AF"/>
<path d="M398.56 652.864H391.053V690.404H398.56V652.864Z" fill="#FFC718"/>
<path d="M413.577 652.863H406.07V690.404H413.577V652.863Z" fill="#FFC718"/>
<path d="M428.593 652.863H421.086V690.404H428.593V652.863Z" fill="#FFC718"/>
<path d="M358.285 626.583C358.236 625.312 358.157 624.061 358.053 622.83C357.945 621.556 357.808 620.305 357.645 619.076C357.475 617.799 357.275 616.545 357.047 615.323C356.808 614.039 356.54 612.785 356.243 611.57C355.926 610.276 355.58 609.022 355.201 607.816H190.496C190.934 609.015 191.339 610.269 191.704 611.57C192.044 612.781 192.358 614.033 192.632 615.323C192.89 616.541 193.116 617.796 193.308 619.076C193.495 620.301 193.648 621.556 193.769 622.83C193.887 624.061 193.975 625.312 194.03 626.583C194.079 627.694 194.109 628.814 194.109 629.948C194.109 630.078 194.105 630.206 194.105 630.337C194.099 631.604 194.063 632.855 193.994 634.09C193.926 635.361 193.821 636.615 193.691 637.843C193.553 639.121 193.384 640.372 193.184 641.597C192.975 642.881 192.73 644.132 192.456 645.35C192.165 646.641 191.842 647.895 191.482 649.104C191.094 650.41 190.666 651.661 190.205 652.857H354.953C355.351 651.652 355.721 650.4 356.054 649.104C356.367 647.888 356.648 646.634 356.903 645.35C357.145 644.128 357.357 642.874 357.54 641.597C357.716 640.368 357.867 639.117 357.988 637.843C358.105 636.612 358.197 635.361 358.259 634.09C358.318 632.855 358.35 631.601 358.353 630.337C358.353 630.206 358.357 630.078 358.357 629.948C358.357 628.814 358.331 627.694 358.285 626.583Z" fill="#FFEFC8"/>
<path d="M431.887 619.282H303.785V621.977H431.887V619.282Z" fill="#243F80"/>
<path d="M431.887 638.692H202.871V641.387H431.887V638.692Z" fill="#243F80"/>
<path d="M331.159 630.336C331.159 642.968 325.106 652.86 317.38 652.86H465.501C473.226 652.86 479.279 642.965 479.279 630.336C479.279 617.707 473.226 607.812 465.501 607.812H317.377C325.106 607.813 331.159 617.707 331.159 630.336Z" fill="#39C6B5"/>
<path d="M397.089 630.336C397.089 642.968 391.036 652.86 383.311 652.86H388.302C396.028 652.86 402.081 642.965 402.081 630.336C402.081 617.707 396.028 607.812 388.302 607.812H383.311C391.036 607.813 397.089 617.707 397.089 630.336Z" fill="#067BC2"/>
<path d="M372.806 630.336C372.806 642.968 366.753 652.86 359.027 652.86H364.019C371.744 652.86 377.798 642.965 377.798 630.336C377.798 617.707 371.744 607.812 364.019 607.812H359.027C366.753 607.813 372.806 617.707 372.806 630.336Z" fill="#067BC2"/>
<path d="M348.521 630.336C348.521 642.969 342.468 652.86 334.742 652.86H339.734C347.459 652.86 353.512 642.965 353.512 630.336C353.512 617.707 347.459 607.813 339.734 607.813H334.742C342.468 607.813 348.521 617.707 348.521 630.336Z" fill="#067BC2"/>
<path fill-rule="evenodd" clip-rule="evenodd" d="M288.371 758.879C290.011 758.559 293.248 758.033 297.975 757.262C294.248 748.962 291.847 732.844 292.063 714.332C292.239 695.934 294.777 679.885 298.583 671.535C294.147 670.751 291.037 670.176 289.368 669.85C288.953 669.579 288.459 669.533 287.966 669.487C281.884 669.402 276.778 689.522 276.592 714.155C276.366 738.904 281.185 759.043 287.306 759.013C287.685 759.023 288.064 759.026 288.371 758.879Z" fill="#E0E1E0"/>
<path fill-rule="evenodd" clip-rule="evenodd" d="M583.835 758.879C582.195 758.559 578.958 758.033 574.231 757.262C577.958 748.962 580.359 732.844 580.143 714.332C579.967 695.934 577.425 679.885 573.623 671.535C578.059 670.751 581.169 670.176 582.838 669.85C583.253 669.579 583.746 669.533 584.24 669.487C590.322 669.402 595.425 689.522 595.611 714.155C595.836 738.904 591.018 759.043 584.896 759.013C584.521 759.023 584.142 759.026 583.835 758.879Z" fill="#E0E1E0"/>
<path fill-rule="evenodd" clip-rule="evenodd" d="M302.689 665.966C302.16 665.655 301.667 665.609 301.173 665.564C294.558 665.547 289.011 687.297 288.757 714.325C288.538 741.239 293.751 763.172 300.481 763.227C300.86 763.234 301.281 763.123 301.699 763.015C315.308 760.503 446.262 737.283 570.663 764.998C571.118 765.155 571.457 765.276 571.951 765.321C578.566 765.334 584.112 743.588 584.367 716.56C584.586 689.646 579.372 667.71 572.643 667.658C572.15 667.612 571.578 667.795 571.078 668.131C447.242 693.575 317.931 668.987 302.689 665.966Z" fill="white"/>
<path fill-rule="evenodd" clip-rule="evenodd" d="M410.466 755.234C412.638 754.845 418.09 753.816 426.015 752.633C421.393 745.803 418.218 736.29 418.316 715.191C418.489 694.245 421.769 685.203 426.463 678.31C418.989 677.105 413.759 676.043 411.368 675.592C410.838 675.282 410.345 675.236 409.852 675.19C403.237 675.177 397.736 688.028 397.481 715.057C397.262 741.971 402.629 755.43 409.205 755.557C409.741 755.488 410.12 755.495 410.466 755.234Z" fill="#FFC718"/>
<path d="M642.357 618.651L631.296 614.14L623.273 610.867L627.504 598.982L635.915 601.681L645.526 604.761L642.357 618.651Z" fill="#FBC7AF"/>
<path d="M642.357 618.651L631.293 614.139C632.476 610.046 634.511 604.986 635.915 601.68L645.526 604.761L642.357 618.651Z" fill="#F8AE93"/>
<path d="M615.414 589.806L611.462 588.304L596.422 626.739L600.375 628.245C601.096 628.418 602.021 628.431 602.762 627.742C604.925 625.74 612.226 618.125 615.251 616.495C617.6 615.228 621.673 614.937 623.375 614.871L629.582 597.676C625.518 594.857 617.165 590.675 615.414 589.806Z" fill="#221F1F"/>
<path d="M723.224 575.227C723.224 575.227 743.219 640.505 737.914 645.692C732.609 650.88 723.459 653.134 723.459 653.134L631.963 622.986L642.132 597.493L704.231 619.817L686.637 569.458L723.224 575.227Z" fill="#454B55"/>
<g opacity="0.3">
<path opacity="0.3" d="M723.224 575.227C723.224 575.227 743.219 640.505 737.914 645.692C732.609 650.88 723.459 653.134 723.459 653.134L631.963 622.986L642.132 597.493L704.231 619.817L686.637 569.458L723.224 575.227Z" fill="#293033"/>
</g>
<path d="M740.783 696.888L742.897 708.406L744.425 716.759L731.881 719.614L729.644 711.241L727.086 701.683L740.783 696.888Z" fill="#FBC7AF"/>
<path d="M740.783 696.888L742.897 708.409C738.725 709.621 733.257 710.64 729.644 711.245L727.086 701.683L740.783 696.888Z" fill="#F8AE93"/>
<path d="M771.839 726.359C771.597 725.673 771.107 724.906 770.111 724.661C767.21 723.945 756.682 721.992 753.634 720.371C751.266 719.111 748.806 715.912 747.823 714.544L729.624 718.601C729.402 723.452 730.326 732.563 730.529 734.47L731.375 738.528L772.685 730.42L771.839 726.359Z" fill="#221F1F"/>
<path d="M755.178 704.806L726.771 707.576L719.607 708.275L696.567 639.012C696.567 639.012 660.304 592.962 655.329 584.665C654.496 583.283 653.797 581.173 653.206 578.618C653.055 577.978 652.915 577.308 652.781 576.616C652.598 575.675 652.422 574.688 652.265 573.672C652.157 573.009 652.059 572.333 651.968 571.647C651.259 566.535 650.798 560.828 650.507 555.791C650.488 555.415 650.465 555.043 650.445 554.68L698.485 568.678C707.491 587.415 720.649 614.741 722.495 618.302C727.039 627.066 755.178 704.806 755.178 704.806Z" fill="#454B55"/>
<g opacity="0.3">
<path opacity="0.3" d="M726.775 707.576L719.611 708.275L696.572 639.012C696.572 639.012 660.308 592.962 655.333 584.665C652.459 579.876 651.126 566.362 650.512 555.787L656.754 558.371C656.754 558.371 658.525 581.702 661.213 584.609C663.902 587.52 704.65 637.99 703.677 640.077C702.834 641.867 721.444 693.017 726.775 707.576Z" fill="#293033"/>
</g>
<path d="M622.657 403.211C621.667 403.717 624.738 420.064 625.822 421.462L627.57 423.19L628.935 431.285C628.935 431.285 630.346 431.471 632.15 431.174C633.123 431.02 634.214 430.716 635.259 430.168C635.844 429.864 636.416 429.482 636.942 429.005C637.213 428.756 636.749 424.376 636.749 424.376C636.749 424.376 642.061 422.161 642.645 419.032C642.988 417.183 643.341 415.308 644.354 413.72C644.88 412.89 645.52 412.126 645.948 411.244C646.379 410.359 646.575 409.29 646.173 408.395C646.128 408.291 646.069 408.186 645.974 408.118C645.778 407.977 645.514 408.046 645.285 408.15C645.262 408.16 645.236 408.173 645.216 408.183C642.747 409.411 640.715 411.508 639.568 414.017C639.568 414.017 636.328 405.367 636.266 402.77C636.266 402.77 634.691 397.357 633.613 397.442C633.215 397.475 632.885 397.599 632.627 397.743C632.189 397.984 631.963 398.278 631.963 398.278C631.963 398.278 633.721 410.136 633.42 410.61C633.117 411.087 629.089 401.026 628.174 400.617C627.913 400.5 627.55 400.591 627.165 400.79C626.809 400.97 626.433 401.238 626.1 401.506C625.538 401.95 625.103 402.391 625.103 402.391C625.103 402.391 624.966 402.421 624.741 402.476C624.44 402.554 623.989 402.679 623.526 402.845C623.232 402.95 622.924 403.074 622.657 403.211Z" fill="#FBC7AF"/>
<path d="M622.657 403.211C621.667 403.717 624.738 420.064 625.822 421.462L627.57 423.19L628.935 431.285C628.935 431.285 630.346 431.471 632.15 431.174C631.192 427.907 631.098 424.389 631.895 421.076C632.656 417.905 634.204 414.932 634.655 411.704C634.939 409.676 634.783 407.611 634.489 405.579C634.172 403.436 633.727 401.32 633.136 399.232C632.966 398.638 632.806 398.154 632.63 397.743C632.192 397.984 631.967 398.278 631.967 398.278C631.967 398.278 633.724 410.136 633.424 410.61C633.12 411.087 629.092 401.026 628.177 400.617C627.916 400.5 627.553 400.591 627.168 400.791C626.812 400.97 626.436 401.238 626.103 401.506C625.541 401.95 625.107 402.391 625.107 402.391C625.107 402.391 624.969 402.421 624.744 402.476C624.444 402.554 623.993 402.679 623.529 402.845C623.232 402.95 622.924 403.074 622.657 403.211Z" fill="#F8AE93"/>
<path d="M626.105 401.509C626.19 401.81 626.282 402.114 626.383 402.417C626.971 404.204 627.713 405.749 628.307 406.831C628.866 407.847 629.29 408.467 629.343 408.542C629.326 408.454 629.179 407.719 628.902 406.602C628.604 405.406 628.173 403.78 627.592 402.022C627.451 401.598 627.308 401.189 627.167 400.794C626.811 400.974 626.435 401.238 626.105 401.509Z" fill="#293033"/>
<path d="M623.531 402.845C624.413 405.704 625.612 407.84 625.687 407.977C625.681 407.821 625.54 405.371 624.743 402.476C624.446 402.558 623.995 402.682 623.531 402.845Z" fill="#293033"/>
<path d="M648.008 483.235C642.859 483.542 638.828 483.326 636.463 482.245C636.238 482.14 636.026 482.033 635.833 481.915C625.301 475.473 628.48 428.593 628.48 428.593L631.214 428.374L634.791 428.087L637.019 427.91C637.019 427.91 643.487 454.06 644.601 466.398L644.607 466.457C644.669 467.169 644.715 467.836 644.741 468.446C644.741 468.446 649.118 467.538 651.336 467.368L648.008 483.235Z" fill="#FBC7AF"/>
<path d="M636.463 482.245C636.238 482.14 636.026 482.033 635.833 481.915C625.301 475.473 628.48 428.593 628.48 428.593L631.214 428.374L631.586 428.629C631.586 428.629 626.797 468.499 636.463 482.245Z" fill="#F8AE93"/>
<path d="M733.918 533.724L742.036 519.828C742.584 519.557 743.189 519.276 743.845 518.988L743.901 518.966C755.256 514.01 781.291 507.104 781.291 507.104L782.206 509.146L783.673 512.422L784.796 514.925C784.796 514.925 745.224 540.254 734.509 534.12C734.317 534.005 734.117 533.871 733.918 533.724Z" fill="#FBC7AF"/>
<path d="M809.855 507.823C809.888 508.934 794.077 514.101 792.33 513.824L789.974 513.121L782.219 515.816C782.219 515.816 781.377 514.67 780.769 512.945C780.436 512.017 780.178 510.916 780.155 509.734C780.139 509.074 780.201 508.391 780.367 507.699C780.455 507.343 784.519 505.641 784.519 505.641C784.519 505.641 783.908 499.918 786.371 497.902C787.828 496.713 789.302 495.501 790.206 493.851C790.68 492.992 791.043 492.061 791.611 491.264C792.183 490.461 793.019 489.775 794.002 489.696C794.117 489.686 794.237 489.686 794.342 489.739C794.558 489.843 794.626 490.111 794.643 490.359C794.646 490.385 794.646 490.412 794.649 490.438C794.76 493.195 793.898 495.985 792.251 498.193C792.251 498.193 801.395 496.873 803.701 495.681C803.701 495.681 809.205 494.459 809.646 495.446C809.81 495.808 809.862 496.158 809.855 496.452C809.855 496.951 809.705 497.291 809.705 497.291C809.705 497.291 798.465 501.453 798.193 501.946C797.922 502.443 808.679 501.133 809.476 501.74C809.705 501.914 809.8 502.276 809.81 502.711C809.823 503.109 809.77 503.566 809.692 503.988C809.574 504.693 809.398 505.288 809.398 505.288C809.398 505.288 809.437 505.422 809.499 505.644C809.574 505.945 809.682 506.402 809.761 506.885C809.806 507.196 809.846 507.522 809.855 507.823Z" fill="#FBC7AF"/>
<path d="M809.854 507.823C809.887 508.934 794.076 514.102 792.328 513.824L789.973 513.122L782.218 515.817C782.218 515.817 781.375 514.67 780.768 512.945C784.093 512.213 787.223 510.606 789.744 508.313C792.158 506.121 794.02 503.335 796.634 501.384C798.274 500.159 800.162 499.304 802.083 498.585C804.114 497.834 806.182 497.203 808.299 496.72C808.903 496.586 809.403 496.491 809.847 496.448C809.847 496.948 809.697 497.288 809.697 497.288C809.697 497.288 798.457 501.45 798.185 501.943C797.914 502.44 808.671 501.13 809.468 501.737C809.697 501.91 809.792 502.273 809.802 502.707C809.815 503.106 809.762 503.563 809.684 503.985C809.566 504.69 809.39 505.285 809.39 505.285C809.39 505.285 809.429 505.419 809.491 505.641C809.566 505.941 809.674 506.399 809.753 506.882C809.805 507.196 809.844 507.523 809.854 507.823Z" fill="#F8AE93"/>
<path d="M809.689 503.982C809.385 504.05 809.075 504.119 808.758 504.174C806.909 504.517 805.198 504.609 803.963 504.609C802.803 504.605 802.055 504.534 801.967 504.524C802.052 504.498 802.767 504.272 803.881 503.978C805.07 503.661 806.707 503.26 808.526 502.926C808.964 502.845 809.395 502.773 809.807 502.708C809.82 503.103 809.768 503.56 809.689 503.982Z" fill="#293033"/>
<path d="M809.754 506.879C806.824 507.48 804.374 507.457 804.217 507.454C804.357 507.385 806.572 506.33 809.493 505.634C809.568 505.938 809.675 506.395 809.754 506.879Z" fill="#293033"/>
<path d="M733.918 533.724C734.117 533.875 734.317 534.005 734.513 534.12C745.227 540.258 784.8 514.925 784.8 514.925L783.676 512.423L783.274 512.22C783.274 512.22 750.62 535.593 733.921 533.728L733.918 533.724Z" fill="#F8AE93"/>
<path d="M791.518 503.165L791.221 502.861C792.704 501.401 792.047 498.265 792.037 498.235L792.018 498.147L792.07 498.072C792.093 498.039 794.282 494.805 794.357 492.313L794.373 491.761C794.406 490.709 794.425 490.105 794.376 489.954C794.36 489.951 794.34 489.948 794.324 489.948L794.334 489.735L794.373 489.526C794.863 489.585 794.863 489.667 794.794 491.774L794.778 492.326C794.703 494.753 792.812 497.716 792.469 498.235C792.576 498.791 793.034 501.672 791.518 503.165ZM794.337 489.735L794.363 489.523L794.337 489.735Z" fill="#293033"/>
<path d="M792.28 498.399L792.215 497.981C792.31 497.964 801.77 496.468 803.596 495.491L803.795 495.867C801.907 496.873 792.672 498.337 792.28 498.399Z" fill="#293033"/>
<path d="M798.176 502.155L798.202 501.731C798.215 501.731 799.678 501.812 803.187 501.603L803.213 502.028C799.672 502.237 798.235 502.159 798.176 502.155Z" fill="#293033"/>
<path d="M792.561 514.046L792.516 513.625C795.233 513.324 800.692 511.485 805.67 509.724C809.355 508.421 809.639 507.901 809.659 507.849C809.656 507.862 809.649 507.921 809.705 507.977L810.005 507.676C810.032 507.702 810.107 507.794 810.074 507.947C810.031 508.127 809.907 508.679 805.814 510.126C800.558 511.981 795.315 513.742 792.561 514.046Z" fill="#293033"/>
<path d="M635.475 418.489C635.605 417.976 635.795 417.48 636.02 417C636.249 416.52 636.53 416.059 636.866 415.638C637.203 415.219 637.595 414.834 638.039 414.52C638.49 414.207 638.963 413.945 639.535 413.811L639.378 413.939C639.663 413.272 640.019 412.665 640.42 412.077C640.819 411.489 641.276 410.943 641.769 410.437C642.269 409.937 642.815 409.477 643.406 409.091C643.7 408.895 644.007 408.722 644.321 408.565C644.631 408.402 644.958 408.271 645.288 408.154C644.67 408.48 644.076 408.843 643.537 409.277C642.991 409.702 642.488 410.176 642.028 410.685C641.564 411.192 641.146 411.74 640.76 412.309C640.571 412.593 640.391 412.887 640.224 413.188C640.058 413.485 639.894 413.792 639.76 414.096L639.715 414.197L639.604 414.22C639.385 414.266 639.137 414.36 638.911 414.462C638.682 414.566 638.46 414.69 638.248 414.831C637.827 415.112 637.438 415.451 637.092 415.834C636.745 416.216 636.442 416.637 636.174 417.085C635.906 417.529 635.68 418.003 635.475 418.489Z" fill="#293033"/>
<path d="M633.319 410.62C633.312 410.532 632.597 401.63 631.865 398.301L632.071 398.256C632.806 401.597 633.521 410.512 633.528 410.6L633.319 410.62Z" fill="#293033"/>
<path d="M625.672 421.612C624.865 420.815 623.166 411.509 622.977 410.45L623.395 410.375C624.107 414.321 625.436 420.779 625.972 421.309L625.672 421.612Z" fill="#293033"/>
<path d="M696.002 462.736C696.002 462.736 656.88 460.629 651.869 462.534C646.858 464.438 642.007 428.757 642.007 428.757L625.161 429.145C625.161 429.145 619.438 485.378 633.008 490.761C646.577 496.145 661.111 494.57 661.111 494.57C661.111 494.57 642.05 566.29 641.994 586.066C641.994 586.066 684.797 635.298 734.568 618.334C734.568 618.334 742.568 554.059 736.568 546.683C736.568 546.683 775.251 533.502 780.694 524.147L771.906 501.414C771.906 501.414 743.999 519.198 741.503 512.409C739.008 505.621 738.047 468.489 696.002 462.736Z" fill="#455E65"/>
<g opacity="0.25">
<g opacity="0.25">
<path opacity="0.25" fill-rule="evenodd" clip-rule="evenodd" d="M777.67 516.326C777.67 516.326 750.909 538.069 742.455 534.613C734.001 531.157 743.837 525.642 742.285 516.917C742.285 516.917 734.73 532.705 734.168 542.247C733.606 551.789 734.56 592.341 729.539 599.175C724.515 606.009 692.22 607.574 673.313 588.604C673.313 588.604 679.49 606.953 700.234 611.236C720.974 615.518 657.117 608.841 647.758 577.618C638.399 546.396 626.959 582.959 626.959 582.959C626.959 582.959 664.695 622.689 689.238 627.974C713.78 633.256 730.633 643.461 737.532 626.716C744.432 609.971 746.862 548.604 747.708 548.672C748.554 548.741 784.455 531.634 784.455 531.634L777.67 516.326Z" fill="#293033"/>
</g>
<g opacity="0.25">
<path opacity="0.25" fill-rule="evenodd" clip-rule="evenodd" d="M716.958 479.926C716.958 479.926 703.506 513.203 695.32 509.094C687.134 504.984 679.431 473.905 683.824 461.796C688.215 449.683 716.958 479.926 716.958 479.926Z" fill="#293033"/>
</g>
<g opacity="0.25">
<path opacity="0.25" fill-rule="evenodd" clip-rule="evenodd" d="M648.898 535.106C648.898 535.106 667.064 507.023 666.512 498.114C665.957 489.203 668.825 485.123 644.495 483.865C620.164 482.607 633.211 429.345 631.892 421.41C630.572 413.475 613.654 419.858 619.452 453.358C625.251 486.857 603.119 494.822 623.879 503.289C644.638 511.756 648.898 535.106 648.898 535.106Z" fill="#293033"/>
</g>
</g>
<path d="M685.493 461.923C685.493 461.923 682.158 488.876 697.524 506.859C697.524 506.859 708.324 506.582 714.302 492.969C720.28 479.354 721.204 472.161 721.204 472.161C721.204 472.161 711.107 461.812 685.493 461.923Z" fill="#223164"/>
<path d="M691.794 463.628C691.794 463.628 689.384 490.127 699.915 496.844C710.447 503.56 717.483 473.226 717.483 473.226L691.794 463.628Z" fill="#244082"/>
<path d="M710.12 467.914C710.198 467.352 710.273 466.823 710.342 466.353C710.492 465.314 710.603 464.569 710.632 464.409C710.887 463.079 713.118 457.533 713.118 457.533L700.209 448.373C700.209 448.373 699.431 451.247 698.601 454.426C697.602 458.258 696.53 462.534 696.671 462.743C695.805 462.58 693.848 463.024 691.797 463.625C693.234 468.224 697.654 479.543 706.389 479.89C712.132 480.118 715.539 476.613 717.486 473.222C715.176 471.073 712.625 469.322 710.12 467.914Z" fill="#FBC7AF"/>
<path d="M698.602 454.426C701.986 458.026 709.45 465.915 710.27 466.323C710.293 466.333 710.319 466.346 710.345 466.352C710.495 465.314 710.607 464.569 710.636 464.409C710.891 463.079 713.122 457.532 713.122 457.532L700.212 448.373C700.209 448.373 699.431 451.247 698.602 454.426Z" fill="#F8AE93"/>
<path d="M698.008 447.151C698.008 447.151 698.063 448.249 699.21 450.065H699.213C699.445 450.438 699.729 450.84 700.063 451.271C701.346 452.904 714.635 463.828 717.062 464.197C719.493 464.566 724.033 457.17 724.402 456.36C726.663 451.392 733.392 435.97 733.392 435.97C732.703 416.827 709.49 419.881 706.651 420.917C703.816 421.952 698.008 447.151 698.008 447.151Z" fill="#FBC7AF"/>
<path d="M728.21 446.371C728.21 446.371 728.154 446.312 728.053 446.208C727.955 446.106 727.808 445.966 727.625 445.819C727.262 445.518 726.749 445.205 726.181 444.979C725.613 444.754 725.028 444.627 724.557 444.597C724.326 444.581 724.123 444.581 723.979 444.587C723.836 444.594 723.754 444.597 723.754 444.597C723.754 444.597 723.806 444.532 723.914 444.431C724.022 444.329 724.195 444.192 724.44 444.068C724.917 443.816 725.747 443.643 726.583 443.973C727.416 444.306 727.899 445.002 728.076 445.515C728.167 445.773 728.2 445.992 728.21 446.139C728.216 446.289 728.21 446.371 728.21 446.371Z" fill="#1A2229"/>
<path d="M717.224 442.471C717.224 442.471 717.123 442.382 716.943 442.232C716.767 442.082 716.502 441.879 716.182 441.657C715.539 441.21 714.64 440.733 713.66 440.367C712.68 440.001 711.677 439.769 710.88 439.677C710.485 439.632 710.142 439.609 709.904 439.602C709.662 439.596 709.521 439.593 709.521 439.593C709.521 439.593 709.6 439.511 709.773 439.384C709.946 439.256 710.224 439.089 710.626 438.946C711.403 438.655 712.785 438.505 714.229 439.041C715.669 439.58 716.561 440.576 716.907 441.288C717.09 441.647 717.169 441.948 717.198 442.15C717.228 442.359 717.224 442.471 717.224 442.471Z" fill="#1A2229"/>
<path d="M718.798 450.761C719.15 450.591 719.526 450.47 719.885 450.31C720.326 450.111 720.754 449.879 721.15 449.598C719.954 448.135 720.424 446.576 721.012 444.829C721.277 444.038 721.728 443.316 722.319 442.732C722.629 442.425 722.979 442.153 723.351 441.931C723.544 441.817 723.74 441.716 723.943 441.627C724.142 441.539 724.328 441.513 724.544 441.49C724.42 441.569 724.322 441.673 724.207 441.758C723.907 441.977 723.603 442.176 723.328 442.428C723.054 442.679 722.799 442.954 722.567 443.248C722.107 443.836 721.744 444.502 721.512 445.211C721.284 445.907 721.179 446.648 721.248 447.38C721.323 448.213 721.627 449.108 722.182 449.745C722.185 449.752 720.813 450.637 720.686 450.705C720.353 450.879 720.006 451.022 719.644 451.127C719.291 451.228 718.883 451.352 718.52 451.231C718.406 451.192 718.298 451.133 718.223 451.039C718.298 451.016 718.37 450.986 718.438 450.947C718.468 450.931 718.497 450.915 718.527 450.895C718.618 450.853 718.706 450.804 718.798 450.761Z" fill="#1A2229"/>
<path d="M720.347 454.116C720.347 454.116 719.194 455.789 717.175 456.569C716.228 456.938 715.095 457.108 713.798 456.824C712.501 456.537 711.573 455.841 710.913 455.031C709.499 453.286 709.303 451.003 709.303 451.003C716.391 451.604 720.19 454.015 720.341 454.11L720.347 454.116Z" fill="white"/>
<path d="M717.452 438.978C717.162 438.985 717.237 437.041 715.633 435.594C714.029 434.144 711.951 434.274 711.948 434.003C711.925 433.879 712.425 433.644 713.3 433.657C714.16 433.664 715.398 433.99 716.381 434.875C717.361 435.764 717.75 436.911 717.782 437.708C717.822 438.521 717.586 438.995 717.452 438.978Z" fill="#1A2229"/>
<path d="M730.199 442.895C730.048 443.019 729.284 441.964 727.84 441.866C726.396 441.765 725.357 442.696 725.243 442.552C725.181 442.497 725.344 442.167 725.811 441.811C726.266 441.458 727.053 441.118 727.938 441.177C728.82 441.239 729.5 441.68 729.849 442.088C730.202 442.503 730.274 442.85 730.199 442.895Z" fill="#1A2229"/>
<path d="M705.496 440.621C705.809 436.769 703.489 433.438 700.313 433.18C697.138 432.922 694.309 435.835 693.996 439.686C693.683 443.538 696.004 446.87 699.18 447.128C702.355 447.386 705.183 444.473 705.496 440.621Z" fill="#FBC7AF"/>
<path d="M709.917 419.355C711.126 416.317 714.595 414.57 717.829 414.086C721.063 413.6 724.509 414.945 726.557 417.493C727.452 418.607 728.08 419.907 728.896 421.08C729.713 422.253 730.788 423.337 732.17 423.703C733.829 424.141 735.551 423.468 737.259 423.302C740.059 423.027 743.159 424.448 744.129 427.088C744.972 429.381 743.992 432.112 742.084 433.637C740.179 435.166 737.527 435.574 735.139 435.068C732.751 434.562 730.598 433.232 728.772 431.609C725.93 434.006 721.229 433.748 718.668 431.053C717.603 429.936 716.908 428.499 715.794 427.427C714.742 426.415 713.311 425.768 711.851 425.791C710.391 425.814 708.93 426.545 708.153 427.78C707.611 428.643 707.418 429.672 707.186 430.665C706.954 431.658 706.65 432.683 705.945 433.418C705.239 434.157 704.024 434.496 703.178 433.928C703.397 435.065 703.606 436.293 703.116 437.342C702.623 438.39 701.11 439.014 700.271 438.217C699.663 437.642 699.702 436.682 699.79 435.852C700.186 432.115 700.718 428.381 701.649 424.742C701.992 423.4 702.4 422.05 703.148 420.884C703.897 419.718 705.033 418.741 706.389 418.464C707.741 418.186 709.257 418.137 709.917 419.355Z" fill="#293033"/>
<path d="M653.738 470.642C646.248 461.828 642.119 433.17 641.55 428.966L625.181 429.341L625.158 428.28L642.481 427.881L642.543 428.355C642.586 428.678 646.836 460.874 654.552 469.956L653.738 470.642Z" fill="#293033"/>
<path d="M649.554 460.094C649.816 460.688 650.26 461.328 650.76 461.593C650.884 461.652 651.008 461.701 651.135 461.711C651.197 461.714 651.263 461.73 651.328 461.714L651.426 461.704L651.452 461.701L651.491 461.694L651.57 461.681L651.88 461.632L652.174 461.596C652.37 461.573 652.566 461.547 652.759 461.534C654.31 461.39 655.856 461.302 657.401 461.237C660.491 461.106 663.585 461.077 666.672 461.096C669.762 461.116 672.849 461.211 675.933 461.341C679.016 461.466 682.097 461.675 685.174 461.893C682.09 461.763 679.006 461.642 675.923 461.606C672.839 461.564 669.755 461.557 666.672 461.626C663.591 461.694 660.511 461.812 657.44 462.031C655.905 462.138 654.373 462.269 652.857 462.455C652.667 462.475 652.481 462.508 652.295 462.534L652.017 462.576L651.756 462.625L651.691 462.638L651.612 462.651L651.423 462.677C651.295 462.7 651.168 462.691 651.037 462.684C650.779 462.664 650.534 462.583 650.312 462.481C649.868 462.263 649.541 461.939 649.263 461.606C649.123 461.439 649.005 461.263 648.888 461.083C648.773 460.897 648.675 460.727 648.574 460.508L649.554 460.094Z" fill="#293033"/>
<path d="M740.076 525.46L739.057 525.163C740.713 519.514 740.955 512.736 740.975 512.109C738.665 497.533 733.318 487.557 729.238 481.752C724.824 475.477 720.934 472.618 720.895 472.592L721.518 471.733C721.682 471.851 725.595 474.722 730.107 481.141C734.258 487.047 739.697 497.19 742.033 511.991L742.04 512.086C742.036 512.158 741.847 519.43 740.076 525.46Z" fill="#293033"/>
<path d="M780.205 524.003L771.646 501.861C751.745 513.948 744.595 514.931 742.102 513.611C741.054 513.056 740.982 512.194 740.979 512.099L741.508 512.073L742.037 512.03C742.04 512.047 742.089 512.426 742.658 512.7C744.196 513.448 750.096 513.768 771.636 500.623L772.178 500.293L781.194 523.617L780.205 524.003Z" fill="#293033"/>
<path d="M649.266 545.112L648.227 544.89C650.004 536.612 659.079 500.195 660.432 494.776C652.379 494.9 645.898 494.217 636.8 492.303C632.583 491.414 629.271 488.638 627.219 484.273C625.687 481.01 625.397 478.051 625.387 477.926L626.445 477.828C626.455 477.943 627.628 489.288 637.019 491.264C646.287 493.214 652.814 493.877 661.101 493.701L661.797 493.688L661.627 494.361C661.526 494.779 651.174 536.227 649.266 545.112Z" fill="#293033"/>
<path d="M734.412 649.057L733.765 648.218L737.485 645.353C740.115 639.352 735.169 621.885 734.219 618.664C722.733 622.248 710.761 622.806 698.628 620.32C688.789 618.305 678.826 614.297 669.013 608.4C652.323 598.375 641.704 586.193 641.596 586.069L642.399 585.377C642.504 585.498 653.032 597.571 669.585 607.505C684.824 616.652 708.438 625.808 734.408 617.485L734.918 617.321L735.075 617.834C735.343 618.7 741.572 639.081 738.39 645.911L738.335 646.029L734.412 649.057Z" fill="#293033"/>
<path d="M719.66 708.805L719.559 707.75L754.44 704.346L723.054 620.758L724.047 620.386L755.92 705.27L719.66 708.805Z" fill="#293033"/>
<path d="M700.916 653.768L696.091 639.267L674.4 611.389L675.237 610.736L697.042 638.761L701.925 653.435L700.916 653.768Z" fill="#293033"/>
<path d="M632.119 622.439L631.787 623.448L698.358 645.379L698.69 644.37L632.119 622.439Z" fill="#293033"/>
<path d="M624.807 610.951L624.406 611.934L634.69 616.129L635.091 615.146L624.807 610.951Z" fill="#293033"/>
<path d="M743.579 715.442L741.988 706.642L743.034 706.449L744.625 715.25L743.579 715.442Z" fill="#293033"/>
<path fill-rule="evenodd" clip-rule="evenodd" d="M784.277 411.296L786.374 409.614C786.668 409.186 788.455 407.798 788.968 407.396C789.882 406.674 790.745 405.955 791.672 405.224L799.931 398.896C800.659 398.373 800.535 398.236 800.231 397.446C800.025 396.91 799.967 396.146 799.859 395.544C799.421 393.104 798.983 390.546 798.519 388.119C797.154 380.985 795.847 373.194 793.881 366.249C793.218 363.904 792.372 361.408 792.241 359.013C791.235 358.425 781.866 355.936 779.899 355.338C775.806 354.094 771.638 352.941 767.676 351.552C766.183 351.03 756.667 347.443 756.085 347.417C755.122 347.374 754.658 348.168 754.155 348.883C748.621 356.694 743.048 364.135 737.622 372.175C735.669 375.066 733.696 377.904 731.863 380.946C731.775 381.093 731.631 381.325 731.448 381.628C728.469 386.502 729.655 392.761 734.267 396.495L758.63 416.213C760.355 417.572 762.217 418.999 764.017 420.466C764.772 421.08 769.306 424.402 769.805 424.595C770.39 424.654 771.089 423.684 771.707 423.073C772.314 422.475 772.892 421.939 773.461 421.387C774.647 420.237 775.819 419.12 777.018 417.902C779.632 415.242 781.775 413.59 784.277 411.296Z" fill="#455E65"/>
<g opacity="0.25">
<g opacity="0.25">
<path opacity="0.25" fill-rule="evenodd" clip-rule="evenodd" d="M754.172 374.357L753.799 375.039L753.675 375.654C753.763 375.565 754.021 375.529 754.025 375.526C754.75 374.334 756.595 372.488 757.595 371.802C762.704 368.287 769.95 369.607 774.81 372.671C778.237 374.83 780.39 376.95 781.896 380.204C783.062 382.726 784.506 388.011 782.768 391.291C781.752 391.147 780.223 390.171 779.266 389.749L768.31 385.016C765.778 383.892 763.299 383.075 760.679 382.014L755.083 379.655C754.521 379.42 753.936 378.972 753.606 378.845L752.705 378.554C751.924 379.495 751.098 383.778 751.098 385.195C751.098 387.41 751.993 389.024 752.969 390.484C755.397 394.107 756.693 395.734 760.976 398.288C764.475 400.376 770.342 401.591 774.412 400.755C777.891 400.042 781.099 397.256 782.735 393.878C783.506 392.287 784.398 389.289 784.731 387.332C785.162 384.8 784.434 383.314 783.65 381.449C782.944 379.773 781.667 377.947 780.824 376.758C778.267 373.148 775.79 371.175 771.295 369.989C766.706 368.777 762.195 368.235 758.284 370.78C757.615 371.214 755.563 372.691 755.06 373.308C754.936 373.462 754.825 373.658 754.688 373.844L754.172 374.357Z" fill="#293033"/>
</g>
<g opacity="0.25">
<path opacity="0.25" fill-rule="evenodd" clip-rule="evenodd" d="M753.599 378.842C753.932 378.969 754.514 379.417 755.076 379.652L760.671 382.011C763.291 383.072 765.771 383.889 768.302 385.013L779.259 389.746C780.216 390.167 781.745 391.144 782.761 391.288C784.498 388.008 783.055 382.723 781.888 380.201C780.382 376.951 778.23 374.827 774.803 372.668C769.942 369.604 762.693 368.284 757.588 371.799C756.588 372.488 754.742 374.334 754.017 375.523C753.668 376.075 753.439 376.124 753.155 376.911C752.874 377.686 752.946 377.721 752.639 378.368C753.37 378.479 753.367 378.453 753.599 378.842Z" fill="#293033"/>
</g>
</g>
<path fill-rule="evenodd" clip-rule="evenodd" d="M754.171 374.357L754.677 373.844C754.815 373.661 754.926 373.462 755.05 373.308C755.553 372.688 757.608 371.214 758.274 370.78C762.184 368.235 766.696 368.777 771.285 369.989C775.78 371.175 778.256 373.148 780.814 376.758C781.66 377.95 782.934 379.776 783.64 381.449C784.427 383.314 785.152 384.8 784.721 387.332C784.388 389.289 783.496 392.288 782.725 393.879C781.089 397.256 777.881 400.043 774.402 400.755C770.331 401.588 764.464 400.376 760.966 398.289C756.683 395.734 755.39 394.107 752.959 390.484C751.982 389.024 751.087 387.411 751.087 385.196C751.087 383.778 751.914 379.495 752.695 378.555L753.596 378.845C753.364 378.457 753.368 378.479 752.636 378.372C752.943 377.725 752.871 377.689 753.152 376.915C753.436 376.127 753.665 376.078 754.014 375.526C754.011 375.526 753.753 375.566 753.665 375.654L753.789 375.04C752.61 376.056 751.927 378.156 750.673 379.048C747.902 381.014 748.062 384.68 748.615 387.571C749.454 391.974 751.163 393.549 753.606 395.976C754.341 396.707 755.265 397.544 756.115 398.223C759.672 401.065 765.039 403.564 770.994 403.629C776.309 403.685 780.05 401.934 783.307 398.128C785.348 395.744 786.978 390.667 787.481 387.371C788.259 382.279 783.594 375.984 780.226 372.599C776.603 368.96 771.321 367.853 765.15 367.68C760.812 367.559 757.314 369.993 754.74 372.913C754.174 373.563 753.805 373.615 754.171 374.357Z" fill="#293033"/>
<path fill-rule="evenodd" clip-rule="evenodd" d="M786.371 409.611L784.273 411.293C786.158 413.325 798.702 416.663 802.975 419.29C804.027 419.937 807.127 422.713 807.323 423.056C807.441 422.432 805.134 419.224 804.285 418.414C800.555 414.854 794.086 413.024 789.494 411.064C788.474 410.63 787.282 409.931 786.371 409.611Z" fill="#FFC72E"/>
<path fill-rule="evenodd" clip-rule="evenodd" d="M820.159 435.238L820.632 434.79L821.756 433.722C814.501 428.178 809.261 421.469 805.919 420.005L804.838 421.031C806.409 424.177 814.243 428.423 820.159 435.238Z" fill="#FDBD30"/>
<path fill-rule="evenodd" clip-rule="evenodd" d="M804.396 420.616L805.478 419.59L805.919 420.002L804.838 421.031L804.396 420.616Z" fill="#AB8242"/>
<path d="M800.231 397.442L792.237 359.01L756.082 347.413" stroke="#293033" stroke-width="0.98" stroke-miterlimit="10"/>
<path fill-rule="evenodd" clip-rule="evenodd" d="M418.081 342.687C418.081 342.687 395.596 344.291 394.048 355.825C392.499 367.36 397.282 381.005 366.363 373.972C335.444 366.938 320.159 394.205 333.846 398.56C347.534 402.914 361.587 414.018 368.894 432.569C376.202 451.12 368.614 450.699 382.667 463.488C396.72 476.277 418.084 455.197 418.084 455.197C418.084 455.197 462.635 399.543 468.257 391.393C473.879 383.242 449.098 377.62 448.418 366.657C447.735 355.701 431.712 342.605 418.081 342.687Z" fill="#293033"/>
<path d="M415.603 528.547L407.338 528.462L401.347 528.4L401.057 519.616L407.159 519.204L414.123 518.734L415.603 528.547Z" fill="#D2682C"/>
<path d="M415.602 528.547L407.338 528.462C407.06 525.506 407.089 521.707 407.158 519.204L414.126 518.734L415.602 528.547Z" fill="#B4392A"/>
<path d="M391.005 545.531C391.514 545.459 392.109 545.23 392.413 544.593C393.298 542.741 396.068 535.933 397.603 534.101C398.796 532.676 401.344 531.445 402.422 530.965L402.062 518.231C398.734 517.45 392.298 516.882 390.949 516.768L388.025 516.807L388.081 545.567L391.005 545.531Z" fill="#221F1F"/>
<path d="M408.615 532.013C408.615 532.013 500.523 548.876 510.431 523.16C520.339 497.442 499.468 483.741 499.468 483.741L434.798 511.75C434.798 511.75 438.339 516.836 408.615 516.836V532.013Z" fill="#454B55"/>
<g opacity="0.3">
<path opacity="0.3" d="M408.615 532.013C408.615 532.013 500.523 548.876 510.431 523.16C520.339 497.442 499.468 483.741 499.468 483.741L434.798 511.75C434.798 511.75 438.339 516.836 408.615 516.836V532.013Z" fill="#293033"/>
</g>
<path d="M395.601 569.857L386.993 569.769L380.754 569.703L380.453 560.554L386.804 560.129L394.062 559.639L395.601 569.857Z" fill="#D2682C"/>
<path d="M395.599 569.857L386.991 569.769C386.704 566.691 386.733 562.732 386.802 560.125L394.057 559.635L395.599 569.857Z" fill="#B4392A"/>
<path d="M369.983 587.546C370.512 587.471 371.136 587.232 371.45 586.569C372.374 584.639 375.259 577.55 376.856 575.642C378.097 574.159 380.75 572.875 381.877 572.376L381.501 559.113C378.032 558.299 371.329 557.708 369.927 557.591L366.883 557.63L366.938 587.585L369.983 587.546Z" fill="#221F1F"/>
<path d="M483.563 505.203C483.563 505.203 510.46 572.411 444.271 575.574L390.939 572.412V557.022C390.939 557.022 440.054 553.651 445.114 543.743C450.174 533.835 442.161 512.782 442.161 512.782L483.563 505.203Z" fill="#454B55"/>
<g opacity="0.3">
<path opacity="0.3" d="M483.561 505.203C483.561 505.203 453.763 514.886 441.686 512.87C441.686 512.87 442.391 513.125 443.185 515.431C443.927 517.59 448.075 528.651 447.193 535.394L446.785 535.622C446.785 535.622 447.334 546.837 437.276 549.189C437.276 549.189 419.972 554.683 394.188 556.764L390.941 557.137V561.726C390.941 561.726 447.18 574.365 474.865 519.982C478.883 515.859 482.143 510.939 483.561 505.203Z" fill="#293033"/>
</g>
<path d="M348.596 334.84C348.596 334.84 368.676 379.923 391.442 379.923C414.207 379.923 423.765 373.775 449.343 375.137C474.921 376.5 513.148 375.376 529.449 348.952L548.843 356.021C548.843 356.021 535.632 397.299 498.249 417.816C498.249 417.816 491.784 420.064 496.844 429.622C501.904 439.18 515.957 475.156 517.643 491.46C517.643 491.46 467.879 515.921 439.419 512.547C439.419 512.547 425.507 509.597 420.659 514.654C420.659 514.654 406.958 479.873 402.741 450.359C398.524 420.848 364.587 429.07 345.614 385.013C326.641 340.955 330.224 341.298 330.224 341.298L348.596 334.84Z" fill="#455E65"/>
<path d="M506.121 317.896L560.792 343.614C560.792 343.614 566.976 345.721 568.942 342.772C570.909 339.822 572.457 334.84 572.457 334.84L509.355 306.09C509.352 306.09 512.161 312.414 506.121 317.896Z" fill="white"/>
<g opacity="0.25">
<g opacity="0.25">
<path opacity="0.25" d="M425.977 512.119C425.977 512.119 407.106 429.041 411.355 419.342C415.605 409.643 410.732 401.212 410.732 401.212C410.732 401.212 396.737 422.436 380.45 404.443C364.162 386.453 337.895 338.6 337.895 338.6L316.518 342.686C316.518 342.686 343.504 447.592 363.744 456.448C383.984 465.304 419.63 518.734 419.63 518.734L425.977 512.119Z" fill="#293033"/>
</g>
<g opacity="0.25">
<path opacity="0.25" d="M531.108 488.69C531.108 488.69 494.038 430.73 485.603 422.717C477.169 414.703 534.185 393.14 551.848 350.161C569.511 307.181 531.108 488.69 531.108 488.69Z" fill="#293033"/>
</g>
<g opacity="0.25">
<path opacity="0.25" d="M463.256 365.576L454.654 437.152L384.826 371.312L463.256 365.576Z" fill="#293033"/>
</g>
</g>
<path d="M506.12 317.896C506.12 317.896 502.605 316.772 504.154 311.15C505.699 305.528 509.354 306.09 509.354 306.09C509.354 306.09 512.304 312.767 506.12 317.896Z" fill="#E0E1E0"/>
<path d="M532.461 350.053C532.461 350.053 529.429 336.307 532.461 332.37C535.492 328.434 538.582 327.029 539.99 328.855C541.395 330.681 537.04 339.678 537.04 339.678L536.39 351.48L532.461 350.053Z" fill="#D3682B"/>
<path d="M540.108 331.394C540.108 331.394 552.312 331.446 553.06 328.068C553.808 324.691 551.094 323.377 549.781 323.286C548.467 323.194 545.282 320.287 543.692 320.568C542.097 320.849 540.507 317.664 538.07 319.35C535.633 321.035 537.407 328.232 537.407 328.232C537.407 328.232 540.961 327.075 540.108 331.394Z" fill="#D3682B"/>
<path d="M536.388 351.484L546.805 355.28C546.805 355.28 553.727 344.294 551.356 339.175L538.71 333.226C538.71 333.226 534.052 344.313 536.388 351.484Z" fill="#D3682B"/>
<path d="M345.921 335.781V318.177C345.921 318.177 341.691 319.16 340.286 314.521C338.881 309.883 336.912 312.695 336.912 312.695C336.912 312.695 333.821 312.695 333.397 313.398C332.975 314.1 331.29 313.117 329.179 314.662C327.072 316.207 323.979 315.057 322.574 319.356C321.17 323.655 321.731 329.019 323.277 330.414C324.822 331.809 331.476 334.353 333.207 340.25L345.921 335.781Z" fill="#D3682B"/>
<path d="M344.359 325.625C344.359 325.625 352.228 322.675 353.914 317.262C355.6 311.852 342.602 318.948 342.602 318.948L344.359 325.625Z" fill="#D3682B"/>
<path d="M342.698 319.14L342.512 318.761C342.551 318.742 346.304 316.906 348.774 315.897C351.289 314.871 353.099 315.07 353.174 315.08L353.125 315.498C353.109 315.495 351.338 315.305 348.934 316.285C346.477 317.288 342.734 319.121 342.698 319.14Z" fill="#1A2229"/>
<path d="M327.38 324.184C326.648 324.184 325.904 323.923 325.858 323.903L326.002 323.508C326.433 323.661 327.667 323.972 328.174 323.554C328.386 323.38 328.458 323.086 328.393 322.659C328.06 320.46 326.995 318.921 324.832 317.51L325.064 317.157C327.305 318.621 328.461 320.3 328.811 322.596C328.899 323.175 328.775 323.606 328.445 323.88C328.161 324.106 327.772 324.184 327.38 324.184Z" fill="#1A2229"/>
<path d="M330.611 322.927C330.019 322.927 329.516 322.842 329.477 322.835L329.549 322.42C330.029 322.502 331.405 322.629 331.97 322.218C332.107 322.12 332.185 321.999 332.208 321.845C332.381 320.722 331.019 316.325 329.471 315.799L329.605 315.4C331.395 316.004 332.819 320.64 332.626 321.911C332.584 322.175 332.447 322.394 332.218 322.561C331.813 322.851 331.169 322.927 330.611 322.927Z" fill="#1A2229"/>
<path d="M334.239 322.025C333.491 322.025 332.825 321.858 332.779 321.845L332.884 321.437C332.903 321.44 334.749 321.904 335.582 321.27C335.837 321.074 335.968 320.797 335.974 320.421C336.01 318.811 335.285 315.524 334.246 314.463C334.057 314.27 333.874 314.172 333.704 314.172V313.75C333.994 313.75 334.279 313.891 334.55 314.169C335.68 315.325 336.438 318.713 336.399 320.434C336.386 320.94 336.199 321.336 335.837 321.61C335.409 321.933 334.801 322.025 334.239 322.025Z" fill="#1A2229"/>
<path d="M337.189 320.918L337.098 320.506L338.855 320.107C340.397 319.758 339.959 317.252 339.953 317.226L340.368 317.151C340.39 317.272 340.88 320.081 338.947 320.519L337.189 320.918Z" fill="#1A2229"/>
<path d="M532.255 350.098C529.854 339.407 531.321 334.396 531.448 333.997C531.488 333.732 531.938 331.537 536.08 328.62C537.956 327.3 539.007 327.611 539.559 328.107C540.749 329.169 540.605 332.037 539.693 333.706C538.573 335.758 538.351 337.643 539.014 339.469L538.619 339.612C537.91 337.666 538.142 335.67 539.324 333.504C540.157 331.978 540.301 329.332 539.282 328.421C538.485 327.712 537.234 328.326 536.325 328.966C532.151 331.906 531.866 334.046 531.866 334.069L531.857 334.111C531.84 334.16 530.246 339.22 532.67 350.007L532.255 350.098Z" fill="#1A2229"/>
<path d="M537.126 327.944C537.05 327.637 535.319 320.414 538.393 318.915L538.579 319.294C535.809 320.643 537.521 327.771 537.537 327.843L537.126 327.944Z" fill="#1A2229"/>
<path d="M540.418 324.854L540 324.805C540.415 321.319 542.378 320.166 542.46 320.117L542.669 320.483L542.564 320.3L542.669 320.483C542.649 320.496 540.804 321.594 540.418 324.854Z" fill="#1A2229"/>
<path d="M543.581 329.31C543.251 326.915 546.652 321.953 546.799 321.744L547.145 321.982C547.109 322.031 543.692 327.016 543.999 329.251L543.581 329.31Z" fill="#1A2229"/>
<path d="M548.343 329.45C546.471 328.085 549.473 323.371 549.601 323.168L549.676 323.054L549.81 323.074C549.898 323.087 551.959 323.41 552.952 324.952C553.508 325.818 553.612 326.882 553.26 328.124L552.854 328.009C553.171 326.892 553.086 325.942 552.6 325.184C551.848 324.014 550.336 323.613 549.879 323.518C549.029 324.873 547.34 328.196 548.588 329.11L548.343 329.45Z" fill="#1A2229"/>
<path d="M333.07 340.263C333.066 340.223 332.684 336.173 323.24 330.597L323.456 330.234C333.138 335.951 333.481 340.067 333.491 340.24L333.07 340.263L333.279 340.249L333.07 340.263Z" fill="#1A2229"/>
<path d="M399.631 379.649L454.655 433.921C454.655 433.921 461.766 390.775 457.761 375.461C457.761 375.461 447.442 375.052 446.109 375.007C444.773 374.961 434.026 374.886 431.425 375.356C428.825 375.823 409.212 378.629 409.212 378.629C409.212 378.629 402.499 379.485 399.631 379.649Z" fill="#223164"/>
<path d="M342.037 330.254L341.622 330.172C342.429 326.092 337.823 322.923 337.777 322.891L338.013 322.541C338.215 322.675 342.899 325.899 342.037 330.254Z" fill="#1A2229"/>
<path d="M409.213 378.626L447.096 416.556C447.096 416.556 448.357 379.691 446.11 375.007C446.11 375.004 434.853 374.216 409.213 378.626Z" fill="#244082"/>
<path d="M436.559 373.089C436.559 373.089 440.142 392.781 436.905 395.058C433.668 397.331 420.777 382.925 420.777 382.925V364.55L436.559 373.089Z" fill="#D2682C"/>
<path d="M420.777 369.673C420.777 369.673 428.108 382.89 437.904 382.782L435.944 367.5L420.777 369.673Z" fill="#B4392A"/>
<path d="M421.383 369.774C421.383 369.774 421.867 370.457 423.346 371.159H423.35C423.654 371.303 424 371.446 424.389 371.587C425.881 372.116 438.893 373.717 440.608 372.962C442.323 372.208 442.225 365.593 442.13 364.92C441.555 360.8 439.588 348.126 439.588 348.126C431.327 336.088 417.636 347.534 416.232 349.36C414.83 351.183 421.383 369.774 421.383 369.774Z" fill="#D2682C"/>
<path d="M440.5 356.936C440.5 356.936 440.438 356.919 440.334 356.893C440.229 356.867 440.076 356.838 439.899 356.818C439.543 356.772 439.086 356.782 438.628 356.867C438.171 356.952 437.743 357.112 437.426 357.285C437.27 357.37 437.139 357.452 437.051 357.514C436.959 357.576 436.91 357.615 436.91 357.615C436.91 357.615 436.917 357.553 436.946 357.442C436.975 357.331 437.031 357.174 437.139 356.995C437.341 356.638 437.805 356.188 438.478 356.06C439.151 355.933 439.746 356.184 440.066 356.442C440.232 356.57 440.34 356.697 440.409 356.789C440.471 356.88 440.5 356.936 440.5 356.936Z" fill="#1A2229"/>
<path d="M439.102 356.24C439.102 356.24 439.124 356.237 439.164 356.233C439.203 356.23 439.262 356.224 439.327 356.211C439.461 356.188 439.631 356.139 439.797 356.067C439.964 355.995 440.118 355.904 440.229 355.822C440.284 355.779 440.33 355.743 440.363 355.714C440.395 355.685 440.411 355.672 440.411 355.672C440.411 355.672 440.412 355.691 440.405 355.727C440.398 355.763 440.382 355.815 440.349 355.881C440.284 356.008 440.127 356.188 439.882 356.296C439.637 356.4 439.409 356.387 439.281 356.345C439.216 356.325 439.17 356.299 439.144 356.276C439.115 356.253 439.102 356.24 439.102 356.24Z" fill="#1A2229"/>
<path d="M425.264 359.089C425.264 359.089 425.287 359.095 425.326 359.105C425.365 359.115 425.42 359.131 425.486 359.141C425.62 359.167 425.796 359.18 425.976 359.174C426.159 359.164 426.335 359.134 426.469 359.099C426.534 359.079 426.593 359.059 426.629 359.046C426.668 359.03 426.691 359.023 426.691 359.023C426.691 359.023 426.685 359.04 426.665 359.072C426.645 359.102 426.613 359.148 426.557 359.193C426.453 359.288 426.24 359.402 425.973 359.415C425.705 359.428 425.496 359.334 425.394 359.249C425.342 359.206 425.309 359.167 425.29 359.138C425.27 359.108 425.264 359.089 425.264 359.089Z" fill="#1A2229"/>
<path d="M431.837 358.912C431.837 358.912 431.735 358.899 431.559 358.873C431.383 358.85 431.131 358.824 430.834 358.814C430.236 358.788 429.465 358.85 428.684 359.017C427.904 359.18 427.165 359.441 426.613 359.709C426.339 359.84 426.11 359.967 425.953 360.059C425.793 360.154 425.705 360.209 425.705 360.209C425.705 360.209 425.721 360.124 425.783 359.971C425.842 359.817 425.953 359.598 426.153 359.343C426.535 358.837 427.361 358.177 428.511 357.932C429.661 357.691 430.638 357.968 431.151 358.285C431.415 358.442 431.588 358.602 431.69 358.723C431.794 358.837 431.837 358.912 431.837 358.912Z" fill="#1A2229"/>
<path d="M436.236 363.603C436.393 363.352 436.586 363.12 436.752 362.868C436.955 362.561 437.134 362.234 437.275 361.895C435.906 361.441 435.573 360.248 435.24 358.883C435.086 358.265 435.083 357.619 435.223 356.998C435.298 356.675 435.413 356.358 435.563 356.06C435.641 355.91 435.726 355.763 435.821 355.623C435.913 355.486 436.024 355.391 436.151 355.29C436.105 355.391 436.082 355.499 436.043 355.597C435.939 355.861 435.824 356.113 435.749 356.387C435.674 356.662 435.622 356.943 435.596 357.227C435.54 357.792 435.579 358.37 435.72 358.922C435.857 359.464 436.092 359.984 436.435 360.425C436.824 360.931 437.386 361.382 438.003 361.565C438.01 361.568 437.487 362.698 437.432 362.793C437.288 363.041 437.125 363.277 436.935 363.489C436.749 363.698 436.537 363.946 436.256 364.015C436.167 364.038 436.073 364.044 435.988 364.012C436.027 363.966 436.06 363.917 436.089 363.865C436.102 363.842 436.115 363.819 436.125 363.796C436.158 363.734 436.197 363.669 436.236 363.603Z" fill="#1A2229"/>
<path d="M430.179 354.368C430.14 354.587 428.7 354.241 427.38 355.228C426.057 356.211 425.848 357.785 425.645 357.746C425.551 357.743 425.449 357.338 425.586 356.684C425.717 356.044 426.148 355.165 426.955 354.561C427.765 353.96 428.68 353.839 429.281 353.934C429.892 354.025 430.212 354.274 430.179 354.368Z" fill="#1A2229"/>
<path d="M430.957 365.589C431.127 365.446 432.018 366.628 433.665 366.71C435.311 366.795 436.474 365.714 436.608 365.87C436.68 365.932 436.5 366.311 435.978 366.726C435.468 367.138 434.58 367.543 433.57 367.494C432.564 367.442 431.78 366.955 431.375 366.498C430.957 366.037 430.869 365.645 430.957 365.589Z" fill="#1A2229"/>
<path d="M440.506 354.999C440.388 355.09 439.833 354.264 438.738 354.153C437.641 354.038 436.824 354.718 436.739 354.607C436.693 354.561 436.827 354.316 437.193 354.058C437.549 353.803 438.157 353.565 438.83 353.633C439.499 353.705 440.006 354.058 440.261 354.378C440.522 354.701 440.568 354.966 440.506 354.999Z" fill="#1A2229"/>
<path d="M422.09 369.277C424.239 368.146 424.868 365.116 423.496 362.509C422.124 359.902 419.27 358.706 417.121 359.836C414.972 360.967 414.343 363.997 415.715 366.604C417.087 369.212 419.941 370.408 422.09 369.277Z" fill="#D2682C"/>
<path d="M432.995 341.298C425.174 341.298 412.441 345.251 414.212 353.071C414.055 354.47 413.643 359.128 415.195 359.023C417.021 358.902 420.604 365.677 421.166 367.014C421.728 368.35 419.624 358.523 419.624 358.523C422.133 357.668 426.641 355.616 427.843 351.663C429.535 346.104 435.582 344.977 437.996 349.22C440.41 353.463 441.318 354.698 442.168 352.255C443.023 349.808 442.602 341.298 432.995 341.298Z" fill="#293033"/>
<path d="M455.273 330.989C455.168 330.933 452.676 329.62 452.434 327.585C452.209 325.703 451.552 324.701 448.416 324.08L448.468 323.819C451.745 324.469 452.467 325.586 452.702 327.556C452.927 329.454 455.374 330.741 455.397 330.754L455.273 330.989Z" fill="#FFC72E"/>
<path fill-rule="evenodd" clip-rule="evenodd" d="M464.93 341.004L465.244 340.688L465.992 339.936C461.255 336.127 457.851 331.492 455.666 330.499L454.947 331.224C455.957 333.4 461.082 336.3 464.93 341.004Z" fill="#FDBD30"/>
<path d="M455.372 330.193L454.654 330.917L454.942 331.202L455.66 330.478L455.372 330.193Z" fill="#AB8242"/>
<path d="M415.24 347.155C415.24 347.155 424.426 354.372 433.046 349.462C441.667 344.552 441.363 342.135 441.363 342.135L439.478 330.822L450.758 324.099C450.758 324.099 426.098 318.951 422.165 319.706C418.232 320.46 397.721 333.06 397.721 333.06L414.453 334.856L415.24 347.155Z" fill="#455E65"/>
<g opacity="0.25">
<g opacity="0.25">
<path opacity="0.25" d="M414.603 334.843C414.603 334.843 425.406 339.198 439.659 330.417C439.659 330.417 423.427 348.217 423.708 353.986C423.989 359.755 411.206 350.719 411 346.525C410.794 342.327 414.603 334.843 414.603 334.843Z" fill="#293033"/>
</g>
</g>
<path d="M441.364 342.135C441.155 341.2 440.959 340.263 440.77 339.325C440.583 338.388 440.394 337.45 440.221 336.509C440.041 335.569 439.868 334.631 439.701 333.69C439.528 332.749 439.368 331.809 439.208 330.865L439.6 331.067C438.551 331.583 437.493 332.067 436.428 332.537C435.363 333.007 434.282 333.448 433.197 333.876C432.11 334.295 431.009 334.683 429.892 335.023L429.049 335.261L428.196 335.464C427.912 335.529 427.621 335.569 427.334 335.621C427.19 335.65 427.043 335.653 426.899 335.667L426.465 335.699C426.752 335.64 427.04 335.604 427.321 335.533C427.602 335.454 427.883 335.392 428.157 335.304L428.983 335.039L429.8 334.745C430.342 334.543 430.885 334.337 431.42 334.115C431.959 333.903 432.492 333.674 433.028 333.448C434.096 332.994 435.154 332.521 436.209 332.044C437.264 331.567 438.316 331.07 439.362 330.574L439.695 330.417L439.754 330.776C439.907 331.72 440.061 332.664 440.204 333.609C440.351 334.553 440.492 335.5 440.629 336.444C440.77 337.391 440.894 338.339 441.021 339.286C441.142 340.233 441.26 341.181 441.364 342.135Z" fill="#293033"/>
<path d="M439.623 331.061L439.336 330.58L450.001 324.223C446.598 323.515 431.662 320.47 423.783 319.918L423.822 319.359C432.744 319.987 450.638 323.786 450.818 323.825L451.517 323.975L439.623 331.061Z" fill="#293033"/>
<path d="M414.608 334.838L414.236 334.862L415.027 347.165L415.398 347.141L414.608 334.838Z" fill="#293033"/>
<path d="M466.036 571.748L465.703 570.821C474.86 567.541 481.367 561.746 485.052 553.599C489.772 543.162 488.994 530.621 487.515 521.942C485.904 512.504 483.131 505.455 483.105 505.383L484.019 505.02C484.049 505.092 486.852 512.217 488.482 521.752C489.439 527.358 489.811 532.692 489.589 537.605C489.308 543.766 488.086 549.28 485.953 554.001C482.154 562.403 475.454 568.374 466.036 571.748Z" fill="#293033"/>
<path d="M489.196 535.972L489.121 535.273C489.177 535.266 494.678 534.649 500.257 531.895C507.686 528.223 511.717 522.706 512.233 515.49L512.239 515.444C512.259 515.34 514.268 505.01 509.152 495.377L509.773 495.047C514.889 504.684 513.04 514.993 512.932 515.562C512.635 519.671 511.197 523.307 508.659 526.361C506.63 528.802 503.906 530.879 500.551 532.532C494.861 535.338 489.252 535.965 489.196 535.972Z" fill="#293033"/>
<path d="M444.531 513.37C440.726 513.37 437.433 512.965 434.676 512.151L434.914 511.341C440.432 512.968 448.193 512.922 457.983 511.204C465.846 509.826 475.022 507.369 485.25 503.91C501.319 498.474 515.013 492.212 517.169 491.215C516.571 487.998 511.348 461.077 499.973 437.335L500.734 436.972C512.844 462.25 518.005 491.101 518.057 491.389L518.113 491.705L517.822 491.843C517.675 491.911 503.001 498.797 485.528 504.707C475.258 508.182 466.042 510.646 458.134 512.034C453.061 512.926 448.517 513.37 444.531 513.37Z" fill="#293033"/>
<path d="M408.964 516.836H408.262V532.013H408.964V516.836Z" fill="#293033"/>
<path d="M408.614 528.06H402.424V528.763H408.614V528.06Z" fill="#293033"/>
<path d="M381.781 569.391L381.773 570.093L390.909 570.187L390.917 569.485L381.781 569.391Z" fill="#293033"/>
<path d="M497.436 371.652L497.256 370.973C509.898 367.618 517.901 361.754 522.386 357.429C527.234 352.754 529.116 348.841 529.135 348.802L529.272 348.511L548.967 355.688L548.725 356.348L529.625 349.386C529.099 350.386 527.113 353.842 522.876 357.932C518.326 362.319 510.225 368.258 497.436 371.652Z" fill="#293033"/>
<path d="M375.938 373.975C370.649 370.561 364.387 362.96 357.321 351.382C352.634 343.703 349.142 336.738 348.416 335.275L330.345 341.628L330.113 340.965L348.776 334.402L348.913 334.683C349.06 334.99 363.907 365.367 376.32 373.38L375.938 373.975Z" fill="#293033"/>
<path d="M407.089 573.721L390.586 572.745V557.025H391.288V572.081L407.132 573.022L407.089 573.721Z" fill="#293033"/>
<path d="M436.39 549.728L436.27 549.035C440.219 548.346 443.084 546.409 444.779 543.276C447.67 537.938 446.723 529.981 445.419 524.248C443.998 518.002 441.859 512.974 441.836 512.922L442.483 512.645C442.506 512.697 444.668 517.783 446.105 524.091C448.043 532.604 447.804 539.17 445.4 543.613C443.593 546.941 440.562 548.999 436.39 549.728Z" fill="#293033"/>
<path d="M908.11 490.761L900.789 488.602L905.029 483.222L911.131 485.022L908.11 490.761Z" fill="white"/>
<path d="M857.898 551.828L851.083 555.265L850.492 548.441L856.17 545.576L857.898 551.828Z" fill="white"/>
<path d="M356.787 601.024L355.131 614.832L344.449 606.548L347.092 600.547L356.787 601.024Z" fill="white"/>
<path d="M97.2187 453.913L89.8066 452.087L93.7985 446.517L99.9758 448.043L97.2187 453.913Z" fill="#39C6B5"/>
<path d="M689.572 562.817L682.16 560.988L686.152 555.421L692.329 556.947L689.572 562.817Z" fill="#39C6B5"/>
<path d="M342.898 521.295L344.934 510.1L353.074 514.17L342.898 521.295Z" fill="#39C6B5"/>
<path d="M510.07 391.281L519.22 384.513L522.369 393.055L510.07 391.281Z" fill="#39C6B5"/>
<path d="M879.98 614.126L882.519 603.036L890.47 607.469L879.98 614.126Z" fill="#39C6B5"/>
<path d="M849.734 426.45L854.167 418.499L861.285 418.819L861.981 425.983L849.734 426.45Z" fill="#39C6B5"/>
<path d="M105.039 600.132L109.472 592.181L116.59 592.501L117.286 599.665L105.039 600.132Z" fill="#39C6B5"/>
<path d="M489.646 609.962L477.436 609.782L481.656 599.665L491.832 599.816L489.646 609.962Z" fill="#39C6B5"/>
<path d="M286.24 576.256L277.273 580.572L278.159 570.945L282.794 570.226L286.24 576.256Z" fill="#067BC2"/>
<path d="M332.04 413.07L326.5 404.805L336.156 404.319L337.522 408.807L332.04 413.07Z" fill="#067BC2"/>
<path d="M229.532 626.658L223.988 618.396L233.645 617.909L235.01 622.395L229.532 626.658Z" fill="#067BC2"/>
<path d="M902.004 354.378L903.618 344.558L910.994 350.814L908.916 355.021L902.004 354.378Z" fill="#067BC2"/>
<path d="M796.58 610.471L786.992 607.809L794.006 601.151L797.965 603.667L796.58 610.471Z" fill="#067BC2"/>
<path d="M156.979 403.231L148.016 407.549L148.901 397.919L153.536 397.204L156.979 403.231Z" fill="#067BC2"/>
<path d="M614.983 628.337L606.02 632.655L606.902 623.025L611.54 622.31L614.983 628.337Z" fill="#067BC2"/>
<path d="M520.663 555.392L517.805 562.468L512.859 557.728L515.244 551.828L520.663 555.392Z" fill="#067BC2"/>
<path d="M90.1656 323.939L82.6816 318.755L83.691 311.702H90.8875L90.1656 323.939Z" fill="white"/>
<path d="M134.588 534.864L137.642 525.705L146.802 531.813L143.748 538.938L134.588 534.864Z" fill="white"/>
<path d="M711.336 634.949L714.39 625.789L723.55 631.894L720.499 639.019L711.336 634.949Z" fill="white"/>
<path d="M686.23 387.966L690.301 379.822H697.425L698.445 386.947L686.23 387.966Z" fill="white"/>
<path fill-rule="evenodd" clip-rule="evenodd" d="M196.682 749.942L197.217 750.18C197.061 751.876 196.607 753.898 196.904 755.551C197.299 757.746 197.518 758.452 200.775 759.046C205.737 759.951 212.848 759.301 218.294 760.114C227.352 761.47 233.641 761.045 241.762 758.563C243.085 758.157 246.72 756.782 246.694 755.724C245.933 755.4 241.883 754.59 239.883 753.999C237.655 753.339 235.568 752.604 233.494 751.895L221.378 747.42C220.767 747.155 218.712 747.188 218.016 747.188C216.801 747.191 215.553 747.155 214.358 747.234C212.038 747.384 209.82 747.459 207.602 747.678C199.488 748.491 198.224 749.844 196.682 749.942Z" fill="#231F20"/>
<path fill-rule="evenodd" clip-rule="evenodd" d="M154.974 609.606L154.392 609.684C153.635 608.159 152.958 606.199 151.841 604.951C150.352 603.291 149.796 602.805 146.709 604.01C142.012 605.846 136.302 610.135 131.238 612.301C122.817 615.904 117.691 619.569 112.083 625.946C111.168 626.984 108.796 630.065 109.378 630.953C110.194 630.829 114.069 629.392 116.078 628.843C118.319 628.232 120.484 627.762 122.621 627.278L135.282 624.724C135.939 624.626 137.674 623.522 138.265 623.153C139.297 622.512 140.378 621.888 141.355 621.193C143.25 619.843 145.099 618.618 146.873 617.266C153.347 612.314 153.713 610.498 154.974 609.606Z" fill="#231F20"/>
<path fill-rule="evenodd" clip-rule="evenodd" d="M238.152 706.763L246.697 635.687L202.565 628.321L193.878 734.843C193.643 736.878 193.519 738.871 193.699 740.027C194.006 742.004 194.107 743.379 194.986 745.238L196.985 749.439C197.233 749.883 196.959 749.743 197.629 749.942C199.647 749.844 201.304 748.491 211.924 747.681C214.831 747.459 217.732 747.387 220.766 747.237C222.331 747.159 223.961 747.195 225.552 747.191C226.467 747.191 229.155 747.159 229.956 747.423C231.687 747.459 233.464 747.89 234.388 747.877C234.47 747.877 234.535 747.874 234.614 747.871C234.692 747.867 234.764 747.858 234.833 747.851C236.557 747.714 235.535 744.549 235.46 743.751C235.323 742.327 235.326 740.838 235.241 739.426C235.12 737.368 234.996 735.392 234.944 733.442L238.152 706.763Z" fill="#454B55"/>
<path fill-rule="evenodd" clip-rule="evenodd" d="M190.506 638.65C190.506 638.65 187.673 708.916 154.239 697.015C120.805 685.115 114.007 629.582 137.804 612.017C161.605 594.449 190.506 638.65 190.506 638.65Z" fill="#454B55"/>
<g opacity="0.25">
<path opacity="0.25" fill-rule="evenodd" clip-rule="evenodd" d="M197.389 691.792L242.478 670.771L237.788 623.176L203.164 622.287L197.389 691.792Z" fill="#293033"/>
</g>
<path fill-rule="evenodd" clip-rule="evenodd" d="M300.921 566.728L283.598 555.634L272.926 571.595L296.367 585.289L300.921 566.728Z" fill="#F28A4F"/>
<path fill-rule="evenodd" clip-rule="evenodd" d="M290.553 581.892L299.484 565.807L304.149 568.668L296.367 585.289L290.553 581.892Z" fill="#D35141"/>
<g opacity="0.25">
<path opacity="0.25" fill-rule="evenodd" clip-rule="evenodd" d="M133.243 616.25C133.243 616.25 131.188 658.616 147.767 668.39C164.345 678.163 186.019 667.116 195.372 655.64C204.724 644.164 133.243 616.25 133.243 616.25Z" fill="#293033"/>
</g>
<path fill-rule="evenodd" clip-rule="evenodd" d="M307.71 567.051C307.674 567.868 308.471 567.963 309.157 568.368C312.205 570.171 311.97 572.268 313.665 571.821C314.345 570.093 317.615 566.32 318.82 564.869C319.549 563.99 326.961 555.598 327.062 555.03C327.32 553.629 325.602 551.959 325.03 551.322C324.155 550.346 323.008 549.408 321.603 548.693C320.823 548.294 317.543 547.105 316.827 547.249C316.295 547.477 312.747 556.634 312.483 557.291C311.098 560.756 309.513 564.177 307.71 567.051Z" fill="white"/>
<path fill-rule="evenodd" clip-rule="evenodd" d="M295.377 585.266C295.102 586.818 295.034 586.752 294.296 587.83C294.024 588.229 293.933 588.425 293.662 588.869C293.319 589.428 293.185 589.722 292.584 589.617C292.871 590.251 292.76 589.686 292.695 590.372L287.762 596.569C287.168 597.261 286.305 597.879 286.119 598.875C286.665 599.927 288.697 601.792 289.948 602.56C290.804 603.086 294.733 604.657 295.935 604.595C295.945 604.582 301.205 591.176 301.443 590.349L301.943 590.365C301.237 589.702 300.411 589.438 299.604 588.624C298.954 587.968 298.163 587.35 297.915 586.452C297.474 585.887 297.35 585.57 297.311 584.737C297.056 584.567 297.131 584.606 296.719 584.518C296.331 584.969 296.122 585.09 295.916 585.625C295.779 585.524 295.472 585.345 295.377 585.266Z" fill="white"/>
<g opacity="0.25">
<path opacity="0.25" fill-rule="evenodd" clip-rule="evenodd" d="M293.949 588.379L300.803 592.09L303.537 586.239L296.615 582.323L295.073 586.569L293.949 588.379Z" fill="#293033"/>
</g>
<path fill-rule="evenodd" clip-rule="evenodd" d="M313.669 571.82C311.974 572.268 312.209 570.171 309.161 568.367C308.475 567.962 307.678 567.871 307.714 567.051C304.176 565.953 303.807 568.403 302.049 567.25C301.742 567.048 301.932 567.221 301.795 566.976L301.285 567.142C300.089 568.318 297.695 573.297 297.051 574.858C295.532 578.543 295.539 581.228 295.379 585.269C295.477 585.348 295.784 585.527 295.928 585.625C295.951 585.563 295.973 585.511 296 585.459L297.581 585.942L297.973 586.337L297.924 586.452C298.172 587.35 298.962 587.967 299.613 588.624C300.419 589.437 301.246 589.702 301.951 590.365C303.474 590.587 304.477 590.757 305.718 590.153C306.241 589.898 306.59 589.584 306.933 589.222C307.593 588.529 307.426 588.141 307.799 587.647C308.008 587.366 311.346 586.517 312.398 583.397C312.973 581.699 313.042 582.813 314.567 581.232C317.716 577.958 315.136 574.104 313.669 571.82Z" fill="#F28A4F"/>
<path fill-rule="evenodd" clip-rule="evenodd" d="M297.318 584.737C297.354 585.57 297.482 585.887 297.923 586.452L299.207 583.362C299.886 581.924 300.072 581.849 301.741 581.598C302.885 583.179 304.557 586.504 307.435 587.004C307.341 584.351 302.205 582.509 302.63 578.282C302.79 576.688 303.76 576.002 304.126 574.682C303.13 575.064 303.11 575.554 302.398 575.783C301.751 575.992 300.526 576.077 299.909 575.724C299.497 574.336 300.451 572.252 301.238 571.33C302.235 570.164 303.518 569.926 303.816 568.24C301.843 567.789 299.54 570.569 298.837 572.421C298.36 573.679 297.978 575.149 298.664 576.247C299.533 577.642 300.758 576.923 301.895 576.596C301.046 578.546 301.196 578.181 301.32 580.333C298.334 579.958 297.331 583.27 297.318 584.737Z" fill="#293033"/>
<path fill-rule="evenodd" clip-rule="evenodd" d="M312.391 581.996C312.525 579.909 308.124 576.815 306.285 573.823C305.243 572.127 305.815 571.615 305.305 570.239C303.479 573.225 305.772 575.682 307.01 577.178C308.209 578.628 310.431 581.744 312.391 581.996Z" fill="#293033"/>
<path fill-rule="evenodd" clip-rule="evenodd" d="M98.7737 449.833L96.5426 442.761C95.8729 440.477 94.0011 435.179 92.8382 433.644C91.476 431.847 89.7544 432.177 89.3167 434.725C89.1436 435.741 89.2318 436.685 89.3624 437.586C89.4931 438.485 89.823 439.475 89.8524 440.344C86.5466 439.279 79.9806 434.029 77.5632 432.719C73.3166 430.419 71.7845 433.209 72.2026 435.052C72.6012 436.796 75.7274 438.622 77.1582 439.847C73.4243 439.324 68.8412 435.999 69.2201 440.105C69.5664 443.881 72.5227 443.881 75.0185 444.979C75.0577 444.995 75.0969 445.012 75.1328 445.031L75.515 445.312C73.8719 445.639 67.8351 445.384 69.1483 447.968C70.5431 450.712 75.5183 449.235 76.7172 449.428C75.6424 449.569 72.8821 451.48 72.0066 452.156C68.3349 454.981 72.6142 457.758 77.5175 454.537C78.9124 453.623 80.01 454.377 81.9014 455.334L83.9234 456.435C83.9888 456.471 84.041 456.5 84.0835 456.527L88.4216 459.267L88.4968 459.32L123.025 480.945L129.124 472.876L98.7737 449.833Z" fill="#F28A4F"/>
<path fill-rule="evenodd" clip-rule="evenodd" d="M88.9344 447.507C87.5395 447.318 85.8539 448.014 84.887 448.491C84.4133 448.726 81.6791 450.33 82.352 451.202C82.7702 451.741 83.7175 450.82 83.9919 450.604C85.8768 449.114 88.1177 448.709 88.9344 447.507Z" fill="#F59B7D"/>
<path fill-rule="evenodd" clip-rule="evenodd" d="M299.856 558.855C290.834 555.624 287.946 554.458 280.093 549.783C278.603 548.895 276.732 547.689 275.183 546.945L267.693 542.502C266.386 541.718 266.435 541.898 266.164 540.48C264.606 532.29 268.114 518.159 264.455 513.285C262.933 508.738 231.933 493.299 231.933 493.299C231.933 493.299 199.227 497.834 191.792 496.7C184.357 495.567 109.602 445.057 109.602 445.057C107.979 445.061 107.819 445.475 106.757 445.809C106.277 446.286 101.06 448.618 99.9494 449.262C89.581 455.262 87.755 462.041 86.4973 463.21C86.1837 464.585 85.3278 466.016 84.9228 467.532C84.5863 468.79 84.9195 471.053 85.7427 472.014C86.2621 472.399 87.0494 472.566 87.9085 472.86C123.257 484.947 126.615 485.035 143.755 509.022C145.457 511.403 150.488 519.893 151.184 522.2C152.66 527.093 154.957 532.023 156.205 536.936C157.747 543.021 158.867 545.723 159.749 552.331C159.854 553.106 160.419 555.618 160.2 556.186C159.932 556.885 158.377 558.352 157.822 559.27C155.306 563.454 159.239 566.407 157.462 567.43C156.169 568.175 153.35 572.323 152.873 573.189C150.054 578.292 151.383 579.876 146.526 587.321C144.912 589.794 144.187 591.816 143.723 594.782C141.42 595.308 139.76 596.102 136.905 596.177C133.936 596.255 130.78 595.608 128.249 595.886C127.53 596.428 137.415 630.748 137.039 631.143C136.523 631.679 136.667 631.352 135.844 631.728C135.86 632.976 139.708 639.029 140.6 640.656C142.54 644.2 144.752 646.738 146.055 649.038C146.774 649.159 146.274 648.989 146.793 649.743C148.025 651.534 151.102 654.212 153.121 655.555C159.932 660.089 165.933 662.477 176.35 663.859C178.745 664.176 181.91 664.509 184.471 664.711L193.072 665.205L212.868 665.087C231.335 664.574 243.134 667.351 256.142 673.443C257.651 674.149 259.569 674.851 260.689 675.658C261.917 676.043 262.058 676.517 263.629 676.566C264.821 675.955 264.779 674.482 265.099 673.339C265.38 672.332 265.632 670.768 266.089 669.902C266.295 667.171 268.17 664.414 269.048 661.771C272.139 652.484 272.606 643.488 271.489 633.992C270.646 626.828 260.571 580.392 254.793 574.241C253.728 573.107 252.464 572.072 251.66 571.062C250.353 569.419 251.092 568.893 251.399 567.038L258.131 572.333C262.858 575.796 268.189 579.069 274.752 581.486C276.64 582.182 283.85 584.266 284.918 584.969C285.931 585.008 286.104 584.72 286.574 584.162C286.95 583.718 287.067 583.525 287.45 583.123C288.492 582.035 288.612 582.091 288.805 580.604C288.384 576.786 287.917 574.254 289.808 570.641C290.608 569.109 293.731 564.193 295.515 562.968L296.332 562.762C300.869 560.279 305.152 560.753 299.856 558.855Z" fill="#455E65"/>
<path fill-rule="evenodd" clip-rule="evenodd" d="M178.086 489.416C178.086 489.416 185.194 527.345 196.846 539.804C208.499 552.263 231.754 493.427 231.754 493.427C231.754 493.427 204.278 497.422 190.846 496.498L178.086 489.416Z" fill="#223164"/>
<path fill-rule="evenodd" clip-rule="evenodd" d="M190.844 496.498C190.844 496.498 197.168 519.694 199.866 521.53C202.568 523.366 225.35 494.43 225.35 494.43L190.844 496.498Z" fill="#244082"/>
<g opacity="0.25">
<path opacity="0.25" fill-rule="evenodd" clip-rule="evenodd" d="M291.154 587.353C291.154 587.353 252.875 567.015 252.875 558.515C252.875 550.015 250.749 530.278 250.749 530.278C250.749 530.278 232.896 567.868 243.098 584.443C253.3 601.018 264.776 654.767 256.276 686.549C247.776 718.33 277.529 694.954 281.779 677.102C286.029 659.249 291.154 587.353 291.154 587.353Z" fill="#293033"/>
</g>
<g opacity="0.25">
<path opacity="0.25" fill-rule="evenodd" clip-rule="evenodd" d="M95.8173 451C95.8173 451 156.767 481.879 163.481 495.055C170.196 508.232 189.306 573.372 182.592 576.041C175.877 578.71 186.218 621.042 145.475 603.946L165.545 542.791L137.725 492.005L86 472.786L95.8173 451Z" fill="#293033"/>
</g>
<path d="M178.976 490.47L109.546 445.443C97.2112 449.105 93.4938 454.099 89.1981 459.881C88.8257 460.381 88.4533 460.884 88.0678 461.394C83.4422 467.512 86.0164 471.785 86.0425 471.827L85.4414 472.203C85.3238 472.014 82.5864 467.47 87.5027 460.969C87.8849 460.463 88.2606 459.96 88.6297 459.463C93.0201 453.557 96.8127 448.454 109.504 444.724L109.66 444.678L179.365 489.879L178.976 490.47Z" fill="#293033"/>
<path d="M284.967 585.338L284.846 585.312C284.8 585.302 280.08 584.24 273.605 581.503C267.631 578.974 258.886 574.46 251.16 567.296L251.069 567.211L251.052 567.087C250.869 565.79 246.632 535.23 251.101 527.978L251.706 528.351C247.508 535.158 251.441 564.686 251.738 566.861C259.359 573.901 267.974 578.347 273.867 580.843C279.714 583.319 284.108 584.41 284.882 584.593C286.038 584.005 288.645 582.309 288.462 580.64C288.442 580.451 288.41 580.225 288.371 579.967C287.962 577.158 287.002 570.585 295.276 562.706L295.766 563.219C287.756 570.843 288.678 577.168 289.073 579.866C289.112 580.131 289.145 580.359 289.168 580.562C289.452 583.139 285.261 585.2 285.081 585.285L284.967 585.338Z" fill="#293033"/>
<path d="M268.954 622.375C268.846 621.97 258.219 581.934 256.651 578.063C255.462 575.126 253.578 573.326 252.199 572.013C251.774 571.608 251.405 571.258 251.131 570.938C249.883 569.488 251.03 566.989 251.079 566.884L251.719 567.185L251.399 567.035L251.719 567.185C251.709 567.208 250.716 569.373 251.667 570.478C251.918 570.768 252.274 571.108 252.686 571.503C254.028 572.784 256.06 574.721 257.305 577.801C258.889 581.715 269.195 620.549 269.633 622.199L268.954 622.375Z" fill="#293033"/>
<path d="M303.655 590.963C303.024 590.963 302.397 590.842 301.78 590.6C299.346 589.647 297.798 587.063 297.595 586.592C297.458 586.279 296.71 585.831 296.22 585.612L296.178 585.589L288.625 580.898L288.997 580.297L296.53 584.975C296.815 585.103 297.958 585.651 298.245 586.308C298.418 586.71 299.859 589.085 302.038 589.937C303.191 590.388 304.377 590.352 305.569 589.826L305.608 589.81L305.648 589.803C305.69 589.794 306.778 589.539 307.457 587.533L308.127 587.762C307.376 589.976 306.095 590.421 305.824 590.489C305.102 590.803 304.377 590.963 303.655 590.963Z" fill="#293033"/>
<path d="M98.4369 449.941L96.1993 442.849C95.5557 440.34 93.4357 433.67 91.3875 432.925C91.0673 432.807 90.7799 432.856 90.4761 433.072L90.414 433.118L90.3813 433.124C90.2539 433.193 88.846 434.134 90.1984 440.272L90.3421 440.918L89.7247 440.677C89.6039 440.631 86.6573 439.445 77.3865 433.029C77.1317 432.909 74.6817 431.782 73.3849 432.631C72.7805 433.026 72.5029 433.836 72.5584 435.038L72.5617 435.104L72.5584 435.107C72.5813 435.287 72.8916 436.685 77.3441 439.546L81.8325 442.036L81.4895 442.656L76.9717 440.148C72.0782 437.002 71.8234 435.43 71.8528 435.042C71.7875 433.585 72.1729 432.572 72.9994 432.033C74.7013 430.922 77.6021 432.34 77.723 432.402L77.7655 432.428C84.6679 437.204 88.0816 439.079 89.3621 439.72C88.1698 433.715 89.7084 432.641 90.1004 432.468C90.5806 432.141 91.1065 432.066 91.6292 432.259C94.3863 433.261 96.6239 441.657 96.882 442.663L99.1099 449.725L98.4369 449.941Z" fill="#293033"/>
<path d="M76.9032 446.171C76.7203 446.099 72.3886 444.407 70.8174 443.659C69.0762 442.826 68.877 440.246 68.8672 440.134L69.5728 440.085C69.5761 440.108 69.7525 442.366 71.1212 443.019C72.6663 443.757 77.1123 445.495 77.158 445.511L76.9032 446.171Z" fill="#293033"/>
<path d="M72.8858 449.823C71.2721 449.823 70.9651 449.591 70.9062 449.49L71.1545 449.35C71.1447 449.333 71.1382 449.327 71.1382 449.327C71.1611 449.346 71.7425 449.81 76.7046 449.284L76.734 449.565C74.9765 449.758 73.745 449.823 72.8858 449.823Z" fill="#293033"/>
<path d="M88.7253 459.627C88.6567 459.584 81.8163 455.449 80.1928 454.635C78.6771 453.874 78.1087 454.377 78.1021 454.384L78.0825 454.4C75.2699 456.233 73.2054 456.128 73.1172 456.125L73.1335 455.841C73.1531 455.841 75.1948 455.939 77.9159 454.168C78.0205 454.08 78.7097 453.574 80.3169 454.38C81.9503 455.2 88.8005 459.339 88.8691 459.382L88.7253 459.627Z" fill="#293033"/>
<path d="M235.47 746.068L234.588 733.429L234.594 733.393L242.421 668.275L243.124 668.36L235.3 733.445L236.175 746.019L235.47 746.068Z" fill="#293033"/>
<path d="M161.615 698.988C159.201 698.988 156.692 698.439 154.102 697.342L154.379 696.689C159.518 698.867 164.32 698.802 168.658 696.496C175.39 692.912 179.892 684.491 182.482 678.059C185.298 671.062 186.523 664.842 186.536 664.78L187.232 664.914C187.219 664.976 185.984 671.261 183.142 678.32C180.509 684.863 175.916 693.435 168.994 697.12C166.649 698.364 164.186 698.988 161.615 698.988Z" fill="#293033"/>
<path d="M182.871 665.084C174.717 665.084 167.23 663.473 160.592 660.288C154.931 657.573 149.871 653.712 145.559 648.819C138.215 640.489 135.54 631.914 135.514 631.829L135.425 631.538L136.634 630.947L127.912 595.971L128.598 595.801L137.457 631.336L136.285 631.911C136.814 633.459 139.61 641.011 146.107 648.374C152.788 655.943 164.861 664.858 184.465 664.358L184.484 665.067C183.942 665.077 183.406 665.084 182.871 665.084Z" fill="#293033"/>
<path d="M307.709 567.051C307.664 567.172 307.683 567.303 307.739 567.407C307.794 567.515 307.882 567.6 307.977 567.672C308.075 567.744 308.183 567.799 308.294 567.851C308.405 567.904 308.526 567.956 308.64 568.015C308.869 568.132 309.088 568.26 309.307 568.397C309.519 568.537 309.731 568.681 309.934 568.838C310.339 569.148 310.728 569.485 311.087 569.847C311.175 569.939 311.267 570.027 311.355 570.122L311.613 570.406L311.861 570.697L312.1 570.994L312.106 571L312.11 571.007C312.185 571.131 312.286 571.255 312.39 571.366C312.498 571.477 312.619 571.575 312.753 571.654C312.884 571.735 313.034 571.788 313.188 571.817C313.341 571.853 313.504 571.84 313.664 571.82C313.511 571.866 313.348 571.909 313.178 571.892C313.011 571.882 312.845 571.843 312.691 571.775C312.537 571.706 312.394 571.611 312.266 571.5C312.136 571.389 312.025 571.268 311.923 571.121L311.933 571.134C311.763 570.948 311.597 570.762 311.424 570.579C311.25 570.399 311.074 570.22 310.894 570.047C310.535 569.7 310.163 569.364 309.771 569.053C309.382 568.74 308.977 568.446 308.552 568.181C308.444 568.113 308.34 568.054 308.229 567.989C308.114 567.923 308.007 567.848 307.912 567.757C307.817 567.665 307.732 567.557 307.686 567.43C307.637 567.306 307.644 567.159 307.709 567.051Z" fill="#293033"/>
<path d="M210.315 495.018C210.169 494.469 210.033 493.953 209.914 493.492C209.649 492.477 209.462 491.747 209.427 491.588C209.146 490.264 209.049 484.286 209.049 484.286L193.596 480.856C193.596 480.856 193.995 483.807 194.464 487.058C195.031 490.978 195.703 495.334 195.914 495.473C195.052 495.658 193.422 496.827 191.764 498.177C194.874 501.858 203.341 510.574 211.526 507.502C216.907 505.484 218.686 500.931 219.164 497.05C216.202 495.966 213.171 495.343 210.315 495.018Z" fill="#F28A4F"/>
<path d="M194.465 487.058C198.981 489.062 208.923 493.435 209.837 493.493C209.862 493.493 209.891 493.495 209.917 493.491C209.653 492.475 209.466 491.746 209.431 491.587C209.15 490.263 209.053 484.285 209.053 484.285L193.599 480.855C193.596 480.856 193.996 483.807 194.465 487.058Z" fill="#D35141"/>
<path d="M191.092 480.585C191.092 480.585 191.569 481.575 193.33 482.804L193.333 482.803C193.692 483.056 194.11 483.316 194.584 483.584C196.401 484.591 212.888 489.499 215.269 488.897C217.652 488.294 218.965 479.716 218.991 478.826C219.146 473.369 219.361 456.544 219.361 456.544C211.295 439.17 191.088 450.996 188.873 453.052C186.662 455.107 191.092 480.585 191.092 480.585Z" fill="#F28A4F"/>
<path d="M218.623 468.141C218.623 468.141 218.549 468.108 218.415 468.051C218.286 467.996 218.096 467.924 217.87 467.859C217.419 467.723 216.825 467.633 216.214 467.646C215.602 467.659 215.014 467.768 214.569 467.924C214.349 467.999 214.162 468.078 214.032 468.139C213.902 468.201 213.828 468.236 213.828 468.236C213.828 468.236 213.851 468.155 213.911 468.02C213.971 467.885 214.077 467.691 214.255 467.482C214.597 467.065 215.294 466.583 216.193 466.563C217.09 466.546 217.806 467 218.168 467.404C218.352 467.606 218.467 467.796 218.533 467.927C218.598 468.063 218.623 468.141 218.623 468.141Z" fill="#1A2229"/>
<path d="M206.985 468.811C206.985 468.811 206.858 468.769 206.634 468.7C206.413 468.63 206.09 468.546 205.709 468.466C204.942 468.303 203.929 468.213 202.884 468.256C201.839 468.299 200.825 468.475 200.054 468.7C199.672 468.811 199.347 468.923 199.125 469.01C198.9 469.097 198.769 469.149 198.769 469.149C198.769 469.149 198.81 469.043 198.92 468.859C199.03 468.674 199.221 468.413 199.536 468.124C200.139 467.555 201.354 466.88 202.893 466.813C204.43 466.75 205.639 467.322 206.234 467.844C206.542 468.104 206.731 468.351 206.837 468.526C206.945 468.707 206.985 468.811 206.985 468.811Z" fill="#1A2229"/>
<path d="M211.654 475.84C211.913 475.547 212.213 475.29 212.482 475.003C212.811 474.648 213.115 474.268 213.37 473.856C211.7 472.971 211.529 471.352 211.392 469.514C211.329 468.682 211.465 467.842 211.782 467.074C211.949 466.67 212.166 466.285 212.423 465.935C212.556 465.755 212.698 465.586 212.85 465.426C212.999 465.267 213.161 465.171 213.351 465.066C213.267 465.186 213.217 465.321 213.145 465.444C212.953 465.762 212.75 466.063 212.595 466.402C212.44 466.74 212.311 467.092 212.212 467.453C212.015 468.174 211.94 468.928 212.001 469.672C212.061 470.402 212.252 471.126 212.599 471.773C212.992 472.512 213.619 473.219 214.379 473.59C214.384 473.595 213.463 474.944 213.373 475.056C213.133 475.345 212.869 475.612 212.576 475.849C212.29 476.079 211.962 476.352 211.581 476.382C211.46 476.39 211.338 476.378 211.232 476.319C211.292 476.269 211.347 476.214 211.395 476.151C211.416 476.125 211.437 476.099 211.456 476.069C211.524 475.994 211.586 475.915 211.654 475.84Z" fill="#1A2229"/>
<path d="M214.385 478.331C214.385 478.331 213.972 480.32 212.414 481.823C211.684 482.531 210.706 483.128 209.4 483.369C208.093 483.608 206.968 483.327 206.046 482.836C204.065 481.778 202.998 479.75 202.998 479.75C209.764 477.552 214.201 478.299 214.376 478.328L214.385 478.331Z" fill="white"/>
<path d="M205.84 465.504C205.575 465.623 204.89 463.802 202.85 463.091C200.809 462.377 198.945 463.304 198.836 463.056C198.767 462.95 199.137 462.539 199.948 462.212C200.743 461.884 202.011 461.705 203.26 462.139C204.508 462.577 205.312 463.483 205.651 464.205C206.003 464.939 205.97 465.467 205.84 465.504Z" fill="#1A2229"/>
<path d="M219.108 464.166C219.017 464.338 217.903 463.663 216.535 464.133C215.165 464.6 214.569 465.861 214.407 465.773C214.329 465.746 214.351 465.379 214.643 464.869C214.925 464.368 215.519 463.749 216.357 463.46C217.194 463.175 217.992 463.317 218.472 463.558C218.958 463.803 219.159 464.094 219.108 464.166Z" fill="#1A2229"/>
<path d="M195.457 471.659C194.251 467.988 190.819 465.819 187.792 466.814C184.765 467.808 183.29 471.591 184.497 475.262C185.703 478.933 189.135 481.103 192.162 480.108C195.189 479.113 196.664 475.331 195.457 471.659Z" fill="#F28A4F"/>
<path d="M209.338 445C198.882 445 181.858 449.589 184.225 458.668C184.015 460.292 182.925 468.121 185 468C187.441 467.86 191.749 473.949 192.5 475.5C192.846 476.214 194.808 476.547 194.5 474C194.138 471.011 191.462 464.998 191.462 464.998C194.816 464.005 204 456.5 205.5 456C207 455.5 213 456.347 214 457.034C215 457.72 220.467 460.557 221.602 457.72C222.747 454.88 222.183 445 209.338 445Z" fill="#293033"/>
<defs>
<filter id="filter0_b_1487_37060" x="27" y="190" width="864" height="586" filterUnits="userSpaceOnUse" color-interpolation-filters="sRGB">
<feFlood flood-opacity="0" result="BackgroundImageFix"/>
<feGaussianBlur in="BackgroundImageFix" stdDeviation="16"/>
<feComposite in2="SourceAlpha" operator="in" result="effect1_backgroundBlur_1487_37060"/>
<feBlend mode="normal" in="SourceGraphic" in2="effect1_backgroundBlur_1487_37060" result="shape"/>
</filter>
</defs>
</svg>
