<svg width="35" height="35" viewBox="0 0 35 35" fill="none" xmlns="http://www.w3.org/2000/svg">
<mask id="mask0_2907_22658" style="mask-type:luminance" maskUnits="userSpaceOnUse" x="0" y="0" width="35" height="35">
<path fill-rule="evenodd" clip-rule="evenodd" d="M0.332031 0.333694H34.498V34.4995H0.332031V0.333694Z" fill="white"/>
</mask>
<g mask="url(#mask0_2907_22658)">
<path fill-rule="evenodd" clip-rule="evenodd" d="M4.26322 5.43461C4.26655 5.43461 4.18322 5.52128 4.07822 5.62461C3.67489 6.01628 2.83989 6.83128 2.83155 8.53628C2.81822 10.9213 4.38655 15.3496 11.9382 22.8996C19.4549 30.4129 23.8766 31.9996 26.2666 31.9996H26.3016C28.0066 31.9913 28.8199 31.1546 29.2132 30.7529C29.3332 30.6296 29.4299 30.5396 29.4982 30.4829C31.1582 28.8129 32.0082 27.5696 31.9999 26.7729C31.9882 25.9596 30.9766 24.9979 29.5782 23.6679C29.1332 23.2446 28.6499 22.7846 28.1399 22.2746C26.8182 20.9563 26.1632 21.1813 24.7232 21.6879C22.7316 22.3863 19.9982 23.3363 15.7516 19.0879C11.4982 14.8379 12.4499 12.1079 13.1466 10.1163C13.6499 8.67628 13.8799 8.01961 12.5566 6.69628C12.0382 6.17961 11.5732 5.68961 11.1449 5.23961C9.82322 3.84961 8.86989 2.84461 8.06155 2.83294H8.04822C7.24989 2.83294 6.00989 3.68628 4.25489 5.44128C4.25989 5.43628 4.26155 5.43461 4.26322 5.43461ZM26.2688 34.4995C22.1155 34.4995 16.7005 31.1928 10.1722 24.6678C3.61884 18.1161 0.307172 12.6845 0.332172 8.52278C0.347172 5.77278 1.78884 4.36445 2.3305 3.83612C2.35884 3.80112 2.4555 3.70612 2.48884 3.67278C4.87884 1.28112 6.4905 0.314449 8.09384 0.332783C9.9555 0.357783 11.2805 1.75112 12.9572 3.51612C13.3722 3.95278 13.8222 4.42778 14.3238 4.92778C16.7572 7.36112 16.0638 9.34612 15.5072 10.9395C14.9005 12.6778 14.3755 14.1778 17.5188 17.3211C20.6655 20.4645 22.1655 19.9394 23.8972 19.3278C25.4922 18.7711 27.4722 18.0744 29.9088 20.5078C30.4022 21.0011 30.8705 21.4461 31.3022 21.8578C33.0755 23.5428 34.4755 24.8745 34.4988 26.7411C34.5188 28.3328 33.5522 29.9545 31.1655 32.3428L30.1088 31.6261L31.0022 32.4995C30.4738 33.0411 29.0672 34.4845 26.3155 34.4995H26.2688Z" fill="#067BC2"/>
</g>
</svg>
