<svg width="37" height="37" viewBox="0 0 37 37" fill="none" xmlns="http://www.w3.org/2000/svg">
<g clip-path="url(#clip0_2907_22687)">
<path d="M31.8817 4.57138H6.16825C5.2878 4.57191 4.57404 5.28602 4.57422 6.16683V31.8803C4.57475 32.7607 5.28885 33.4745 6.16967 33.4743H20.0136V22.297H16.2596V17.9221H20.0136V14.7024C20.0136 10.9687 22.293 8.93646 25.6236 8.93646C27.2188 8.93646 28.5897 9.05536 28.9893 9.10846V13.0108H26.6926C24.8805 13.0108 24.5297 13.8719 24.5297 15.1357V17.9221H28.8623L28.2978 22.297H24.5297V33.4743H31.8817C32.7627 33.4745 33.477 32.7606 33.4771 31.8796C33.4771 31.8794 33.4771 31.8792 33.4771 31.8789V6.16542C33.4768 5.28496 32.7625 4.5712 31.8817 4.57138Z" fill="#067BC2"/>
</g>
<defs>
<clipPath id="clip0_2907_22687">
<rect width="36.5712" height="36.5712" fill="white" transform="translate(0.00195312)"/>
</clipPath>
</defs>
</svg>
