<svg width="38" height="37" viewBox="0 0 38 37" fill="none" xmlns="http://www.w3.org/2000/svg">
<g clip-path="url(#clip0_2907_22693)">
<g clip-path="url(#clip1_2907_22693)">
<path d="M33.8146 12.8963C33.7482 11.3917 33.5049 10.3574 33.1564 9.46111C32.7969 8.50973 32.2437 7.65796 31.519 6.94989C30.8109 6.23079 29.9535 5.67202 29.0132 5.31809C28.1117 4.96956 27.0828 4.72626 25.5782 4.65993C24.0625 4.58797 23.5813 4.57133 19.7369 4.57133C15.8925 4.57133 15.4113 4.58797 13.9011 4.65431C12.3966 4.72064 11.3622 4.96416 10.4662 5.31247C9.51457 5.67202 8.6628 6.22517 7.95472 6.94989C7.23563 7.65796 6.67707 8.51535 6.32293 9.45571C5.9744 10.3574 5.7311 11.3861 5.66476 12.8906C5.59281 14.4064 5.57617 14.8876 5.57617 18.732C5.57617 22.5764 5.59281 23.0576 5.65914 24.5678C5.72548 26.0723 5.969 27.1066 6.31752 28.0029C6.67707 28.9543 7.23563 29.8061 7.95472 30.5142C8.6628 31.2332 9.52019 31.792 10.4605 32.1459C11.3622 32.4945 12.391 32.7378 13.8957 32.8041C15.4056 32.8707 15.8871 32.8871 19.7315 32.8871C23.5759 32.8871 24.0571 32.8707 25.5672 32.8041C27.0717 32.7378 28.1061 32.4945 29.0021 32.1459C30.9051 31.4102 32.4097 29.9057 33.1454 28.0029C33.4937 27.1012 33.7372 26.0723 33.8036 24.5678C33.8699 23.0576 33.8865 22.5764 33.8865 18.732C33.8865 14.8876 33.8809 14.4064 33.8146 12.8963ZM31.2647 24.4571C31.2037 25.84 30.9715 26.5868 30.7779 27.0846C30.3021 28.3182 29.323 29.2972 28.0894 29.773C27.5916 29.9666 26.8395 30.1989 25.462 30.2596C23.9685 30.3262 23.5205 30.3426 19.7425 30.3426C15.9644 30.3426 15.5109 30.3262 14.0228 30.2596C12.6399 30.1989 11.8931 29.9666 11.3953 29.773C10.7814 29.5461 10.2226 29.1866 9.76911 28.7164C9.29893 28.2572 8.93938 27.7041 8.7125 27.0902C8.5189 26.5924 8.28662 25.84 8.2259 24.4628C8.15935 22.9692 8.14293 22.5211 8.14293 18.743C8.14293 14.965 8.15935 14.5114 8.2259 13.0235C8.28662 11.6407 8.5189 10.8939 8.7125 10.3961C8.93938 9.78198 9.29893 9.22343 9.77472 8.76967C10.2337 8.29949 10.7868 7.93994 11.4009 7.71328C11.8987 7.51968 12.6511 7.2874 14.0284 7.22646C15.5219 7.16013 15.97 7.14349 19.7479 7.14349C23.5316 7.14349 23.9795 7.16013 25.4676 7.22646C26.8505 7.2874 27.5972 7.51968 28.0951 7.71328C28.7089 7.93994 29.2677 8.29949 29.7212 8.76967C30.1914 9.22883 30.551 9.78198 30.7779 10.3961C30.9715 10.8939 31.2037 11.6461 31.2647 13.0235C31.331 14.517 31.3476 14.965 31.3476 18.743C31.3476 22.5211 31.331 22.9636 31.2647 24.4571Z" fill="#067BC2"/>
<path d="M19.7368 11.4582C15.7211 11.4582 12.4629 14.7162 12.4629 18.7321C12.4629 22.7481 15.7211 26.0061 19.7368 26.0061C23.7528 26.0061 27.0108 22.7481 27.0108 18.7321C27.0108 14.7162 23.7528 11.4582 19.7368 11.4582ZM19.7368 23.4505C17.1316 23.4505 15.0184 21.3376 15.0184 18.7321C15.0184 16.1267 17.1316 14.0137 19.7368 14.0137C22.3423 14.0137 24.4553 16.1267 24.4553 18.7321C24.4553 21.3376 22.3423 23.4505 19.7368 23.4505Z" fill="#067BC2"/>
<path d="M28.9961 11.1703C28.9961 12.1081 28.2357 12.8685 27.2977 12.8685C26.36 12.8685 25.5996 12.1081 25.5996 11.1703C25.5996 10.2324 26.36 9.47221 27.2977 9.47221C28.2357 9.47221 28.9961 10.2324 28.9961 11.1703Z" fill="#067BC2"/>
</g>
</g>
<defs>
<clipPath id="clip0_2907_22693">
<rect width="36.5712" height="36.5712" fill="white" transform="translate(0.953125 -1.52588e-05)"/>
</clipPath>
<clipPath id="clip1_2907_22693">
<rect width="28.3158" height="28.3158" fill="white" transform="translate(5.52539 4.57138)"/>
</clipPath>
</defs>
</svg>
