<svg width="40" height="40" viewBox="0 0 40 40" fill="none" xmlns="http://www.w3.org/2000/svg">
<path fill-rule="evenodd" clip-rule="evenodd" d="M20.4161 14.1666C18.8077 14.1666 17.4994 15.4749 17.4994 17.0849C17.4994 18.6933 18.8077 19.9999 20.4161 19.9999C22.0244 19.9999 23.3327 18.6933 23.3327 17.0849C23.3327 15.4749 22.0244 14.1666 20.4161 14.1666ZM20.4167 22.4999C17.43 22.4999 15 20.0716 15 17.0849C15 14.0966 17.43 11.6666 20.4167 11.6666C23.4033 11.6666 25.8333 14.0966 25.8333 17.0849C25.8333 20.0716 23.4033 22.4999 20.4167 22.4999Z" fill="#067BC2"/>
<mask id="mask0_2907_22675" style="mask-type:luminance" maskUnits="userSpaceOnUse" x="6" y="3" width="29" height="33">
<path fill-rule="evenodd" clip-rule="evenodd" d="M6.66406 3.33331H34.1632V35.8333H6.66406V3.33331Z" fill="white"/>
</mask>
<g mask="url(#mask0_2907_22675)">
<path fill-rule="evenodd" clip-rule="evenodd" d="M20.4115 5.83333C14.2082 5.83333 9.16151 10.9283 9.16151 17.1883C9.16151 25.1533 18.5348 32.9133 20.4115 33.3267C22.2882 32.9117 31.6615 25.1517 31.6615 17.1883C31.6615 10.9283 26.6148 5.83333 20.4115 5.83333ZM20.4121 35.8333C17.4221 35.8333 6.66211 26.58 6.66211 17.1883C6.66211 9.5483 12.8304 3.33331 20.4121 3.33331C27.9938 3.33331 34.1621 9.5483 34.1621 17.1883C34.1621 26.58 23.4021 35.8333 20.4121 35.8333Z" fill="#067BC2"/>
</g>
</svg>
