<svg width="37" height="33" viewBox="0 0 37 33" fill="none" xmlns="http://www.w3.org/2000/svg">
<path fill-rule="evenodd" clip-rule="evenodd" d="M18.6269 19.4413C17.5119 19.4413 16.4002 19.073 15.4702 18.3363L7.99525 12.3096C7.45691 11.8763 7.37358 11.088 7.80525 10.5513C8.24025 10.0163 9.02691 9.93129 9.56358 10.363L17.0319 16.383C17.9702 17.1263 19.2919 17.1263 20.2369 16.3763L27.6302 10.3663C28.1669 9.92796 28.9536 10.0113 29.3902 10.548C29.8252 11.083 29.7436 11.8696 29.2086 12.3063L21.8019 18.3263C20.8652 19.0696 19.7452 19.4413 18.6269 19.4413Z" fill="#067BC2"/>
<mask id="mask0_2907_22666" style="mask-type:luminance" maskUnits="userSpaceOnUse" x="0" y="0" width="37" height="33">
<path fill-rule="evenodd" clip-rule="evenodd" d="M0.666016 0.333305H36.4992V32.8333H0.666016V0.333305Z" fill="white"/>
</mask>
<g mask="url(#mask0_2907_22666)">
<path fill-rule="evenodd" clip-rule="evenodd" d="M10.3971 30.3333H26.7637C26.7671 30.33 26.7804 30.3333 26.7904 30.3333C28.6921 30.3333 30.3787 29.6533 31.6721 28.3617C33.1737 26.8667 33.9987 24.7183 33.9987 22.3133V10.8667C33.9987 6.21167 30.9554 2.83334 26.7637 2.83334H10.4004C6.20875 2.83334 3.16542 6.21167 3.16542 10.8667V22.3133C3.16542 24.7183 3.99208 26.8667 5.49208 28.3617C6.78542 29.6533 8.47375 30.3333 10.3737 30.3333H10.3971ZM10.3693 32.8333C7.79768 32.8333 5.50102 31.9 3.72768 30.1333C1.75268 28.1633 0.666016 25.3867 0.666016 22.3133V10.8667C0.666016 4.86167 4.85102 0.333339 10.401 0.333339H26.7644C32.3144 0.333339 36.4994 4.86167 36.4994 10.8667V22.3133C36.4994 25.3867 35.4127 28.1633 33.4377 30.1333C31.666 31.8983 29.3677 32.8333 26.791 32.8333H26.7644H10.401H10.3693Z" fill="#067BC2"/>
</g>
</svg>
