<svg width="38" height="37" viewBox="0 0 38 37" fill="none" xmlns="http://www.w3.org/2000/svg">
<g clip-path="url(#clip0_2907_22690)">
<path d="M14.1164 29.5274C24.9971 29.5274 30.9473 20.5131 30.9473 12.6965C30.9473 12.4405 30.942 12.1856 30.9306 11.932C32.0855 11.0969 33.0893 10.0549 33.8813 8.86874C32.8214 9.34005 31.6806 9.65691 30.4843 9.80026C31.7055 9.06764 32.6432 7.90919 33.0854 6.52823C31.9425 7.20584 30.6767 7.69814 29.3292 7.96403C28.2497 6.81423 26.7127 6.09518 25.011 6.09518C21.7445 6.09518 19.0952 8.74426 19.0952 12.0098C19.0952 12.4742 19.1473 12.9256 19.2486 13.3586C14.3322 13.1112 9.97247 10.7575 7.05521 7.17816C6.5474 8.05219 6.25435 9.06781 6.25435 10.1515C6.25435 12.2035 7.29871 14.0156 8.88667 15.0753C7.91619 15.0455 7.0046 14.7791 6.20762 14.3356C6.20674 14.3605 6.20674 14.3847 6.20674 14.4111C6.20674 17.276 8.24574 19.668 10.9528 20.21C10.4556 20.3452 9.93244 20.4181 9.39289 20.4181C9.01239 20.4181 8.64141 20.3807 8.281 20.3114C9.03408 22.6618 11.218 24.3721 13.8071 24.4201C11.7824 26.007 9.23191 26.9522 6.45994 26.9522C5.98316 26.9522 5.51185 26.9249 5.04883 26.8702C7.66687 28.5483 10.7756 29.5276 14.1166 29.5276" fill="#067BC2"/>
</g>
<defs>
<clipPath id="clip0_2907_22690">
<rect width="36.5712" height="36.5712" fill="white" transform="translate(0.478516 -1.52588e-05)"/>
</clipPath>
</defs>
</svg>
