<svg width="37" height="37" viewBox="0 0 37 37" fill="none" xmlns="http://www.w3.org/2000/svg">
<g clip-path="url(#clip0_2907_22699)">
<path fill-rule="evenodd" clip-rule="evenodd" d="M29.5497 8.76759C26.8483 6.06305 23.2557 4.57297 19.4284 4.57138C11.5417 4.57138 5.12319 10.9898 5.12002 18.8785C5.11896 21.4003 5.77773 23.862 7.0299 26.0318L5 33.4461L12.5851 31.4564C14.6751 32.5964 17.028 33.1972 19.4225 33.1979H19.4285C27.3143 33.1979 33.7335 26.779 33.7365 18.89C33.7381 15.0667 32.2512 11.4719 29.5497 8.76759ZM19.4284 30.7816H19.4234C17.2895 30.7807 15.1967 30.2072 13.3706 29.1239L12.9365 28.866L8.43539 30.0468L9.6368 25.6583L9.35394 25.2084C8.16346 23.3149 7.53482 21.1264 7.53588 18.8794C7.53834 12.3225 12.8734 6.98795 19.4331 6.98795C22.6096 6.989 25.5956 8.2276 27.8409 10.4755C30.0861 12.7234 31.3219 15.7113 31.3208 18.8891C31.318 25.4465 25.9833 30.7816 19.4284 30.7816ZM25.9516 21.8747C25.5942 21.6956 23.8364 20.831 23.5086 20.7115C23.1812 20.5922 22.9425 20.5328 22.7044 20.8906C22.466 21.2484 21.781 22.0538 21.5723 22.2922C21.3636 22.5308 21.1553 22.5608 20.7977 22.3817C20.4401 22.2029 19.2883 21.8252 17.9226 20.6072C16.8599 19.6592 16.1424 18.4885 15.9338 18.1307C15.7254 17.7726 15.932 17.5978 16.0906 17.4011C16.4776 16.9205 16.8652 16.4166 16.9843 16.1782C17.1036 15.9396 17.0439 15.7307 16.9543 15.5518C16.8652 15.373 16.1502 13.6132 15.8523 12.8972C15.5619 12.2003 15.2674 12.2944 15.0478 12.2835C14.8395 12.2731 14.6011 12.271 14.3626 12.271C14.1243 12.271 13.737 12.3604 13.4092 12.7185C13.0815 13.0764 12.1581 13.9412 12.1581 15.7009C12.1581 17.4607 13.4391 19.1607 13.6178 19.3993C13.7965 19.6379 16.1389 23.249 19.7251 24.7974C20.5781 25.1661 21.244 25.3859 21.7633 25.5507C22.6198 25.8228 23.399 25.7844 24.0151 25.6924C24.7021 25.5896 26.1301 24.8274 26.4283 23.9924C26.7262 23.1572 26.7262 22.4415 26.6366 22.2922C26.5475 22.1431 26.309 22.0538 25.9516 21.8747Z" fill="#067BC2"/>
</g>
<defs>
<clipPath id="clip0_2907_22699">
<rect width="36.5712" height="36.5712" fill="white" transform="translate(0.429688 -1.52588e-05)"/>
</clipPath>
</defs>
</svg>
